<mxfile host="Electron" agent="Mozilla/5.0 (Windows NT 10.0; Win64; x64) AppleWebKit/537.36 (KHTML, like Gecko) draw.io/27.0.9 Chrome/134.0.6998.205 Electron/35.4.0 Safari/537.36" version="27.0.9">
  <diagram name="Página-1" id="8S38VQ0sncr06OrbGgkg">
    <mxGraphModel dx="1501" dy="885" grid="1" gridSize="10" guides="1" tooltips="1" connect="1" arrows="1" fold="1" page="1" pageScale="1" pageWidth="827" pageHeight="1169" math="0" shadow="0">
      <root>
        <mxCell id="0" />
        <mxCell id="1" parent="0" />
        <mxCell id="AK56_XDHbvMIRoJ7_V73-85" value="Consulta opciones de viaje" style="html=1;verticalAlign=bottom;endArrow=block;curved=0;rounded=0;" edge="1" parent="1" source="AK56_XDHbvMIRoJ7_V73-4" target="AK56_XDHbvMIRoJ7_V73-86">
          <mxGeometry width="80" relative="1" as="geometry">
            <mxPoint x="300" y="849" as="sourcePoint" />
            <mxPoint x="810" y="849" as="targetPoint" />
          </mxGeometry>
        </mxCell>
        <mxCell id="AK56_XDHbvMIRoJ7_V73-67" value="Notificación de dirección asignada" style="html=1;verticalAlign=bottom;endArrow=open;dashed=1;endSize=8;curved=0;rounded=0;" edge="1" parent="1" source="AK56_XDHbvMIRoJ7_V73-56">
          <mxGeometry relative="1" as="geometry">
            <mxPoint x="626.9951162790699" y="520" as="sourcePoint" />
            <mxPoint x="285" y="520" as="targetPoint" />
          </mxGeometry>
        </mxCell>
        <mxCell id="AK56_XDHbvMIRoJ7_V73-60" value="Consulta opciones de viaje" style="html=1;verticalAlign=bottom;endArrow=block;curved=0;rounded=0;" edge="1" parent="1" source="AK56_XDHbvMIRoJ7_V73-4">
          <mxGeometry width="80" relative="1" as="geometry">
            <mxPoint x="638.9999999999998" y="540" as="sourcePoint" />
            <mxPoint x="826" y="540" as="targetPoint" />
          </mxGeometry>
        </mxCell>
        <mxCell id="AK56_XDHbvMIRoJ7_V73-2" value="Usuario" style="shape=umlActor;verticalLabelPosition=bottom;verticalAlign=top;html=1;" vertex="1" parent="1">
          <mxGeometry x="90" y="270" width="30" height="60" as="geometry" />
        </mxCell>
        <mxCell id="AK56_XDHbvMIRoJ7_V73-3" value=":User_UI" style="shape=umlLifeline;perimeter=lifelinePerimeter;whiteSpace=wrap;html=1;container=1;dropTarget=0;collapsible=0;recursiveResize=0;outlineConnect=0;portConstraint=eastwest;newEdgeStyle={&quot;curved&quot;:0,&quot;rounded&quot;:0};" vertex="1" parent="1">
          <mxGeometry x="230" y="210" width="100" height="780" as="geometry" />
        </mxCell>
        <mxCell id="AK56_XDHbvMIRoJ7_V73-4" value="" style="html=1;points=[[0,0,0,0,5],[0,1,0,0,-5],[1,0,0,0,5],[1,1,0,0,-5]];perimeter=orthogonalPerimeter;outlineConnect=0;targetShapes=umlLifeline;portConstraint=eastwest;newEdgeStyle={&quot;curved&quot;:0,&quot;rounded&quot;:0};" vertex="1" parent="AK56_XDHbvMIRoJ7_V73-3">
          <mxGeometry x="45" y="100" width="10" height="660" as="geometry" />
        </mxCell>
        <mxCell id="AK56_XDHbvMIRoJ7_V73-5" value=":Opcion_Viaje_Controller" style="shape=umlLifeline;perimeter=lifelinePerimeter;whiteSpace=wrap;html=1;container=1;dropTarget=0;collapsible=0;recursiveResize=0;outlineConnect=0;portConstraint=eastwest;newEdgeStyle={&quot;curved&quot;:0,&quot;rounded&quot;:0};" vertex="1" parent="1">
          <mxGeometry x="750" y="210" width="160" height="780" as="geometry" />
        </mxCell>
        <mxCell id="AK56_XDHbvMIRoJ7_V73-6" value="" style="html=1;points=[[0,0,0,0,5],[0,1,0,0,-5],[1,0,0,0,5],[1,1,0,0,-5]];perimeter=orthogonalPerimeter;outlineConnect=0;targetShapes=umlLifeline;portConstraint=eastwest;newEdgeStyle={&quot;curved&quot;:0,&quot;rounded&quot;:0};" vertex="1" parent="AK56_XDHbvMIRoJ7_V73-5">
          <mxGeometry x="77" y="330" width="10" height="40" as="geometry" />
        </mxCell>
        <mxCell id="AK56_XDHbvMIRoJ7_V73-7" value=":Address_Controller" style="shape=umlLifeline;perimeter=lifelinePerimeter;whiteSpace=wrap;html=1;container=1;dropTarget=0;collapsible=0;recursiveResize=0;outlineConnect=0;portConstraint=eastwest;newEdgeStyle={&quot;curved&quot;:0,&quot;rounded&quot;:0};" vertex="1" parent="1">
          <mxGeometry x="390" y="210" width="130" height="780" as="geometry" />
        </mxCell>
        <mxCell id="AK56_XDHbvMIRoJ7_V73-8" value="" style="html=1;points=[[0,0,0,0,5],[0,1,0,0,-5],[1,0,0,0,5],[1,1,0,0,-5]];perimeter=orthogonalPerimeter;outlineConnect=0;targetShapes=umlLifeline;portConstraint=eastwest;newEdgeStyle={&quot;curved&quot;:0,&quot;rounded&quot;:0};" vertex="1" parent="AK56_XDHbvMIRoJ7_V73-7">
          <mxGeometry x="60" y="160" width="10" height="110" as="geometry" />
        </mxCell>
        <mxCell id="AK56_XDHbvMIRoJ7_V73-9" value="Ingresar dirección destino" style="html=1;verticalAlign=bottom;endArrow=block;curved=0;rounded=0;" edge="1" parent="1" target="AK56_XDHbvMIRoJ7_V73-3">
          <mxGeometry width="80" relative="1" as="geometry">
            <mxPoint x="150" y="310" as="sourcePoint" />
            <mxPoint x="230" y="310" as="targetPoint" />
          </mxGeometry>
        </mxCell>
        <mxCell id="AK56_XDHbvMIRoJ7_V73-10" value="Validar dirección" style="html=1;verticalAlign=bottom;endArrow=block;curved=0;rounded=0;" edge="1" parent="1">
          <mxGeometry width="80" relative="1" as="geometry">
            <mxPoint x="285.0000000000001" y="370" as="sourcePoint" />
            <mxPoint x="454.5" y="370" as="targetPoint" />
          </mxGeometry>
        </mxCell>
        <mxCell id="AK56_XDHbvMIRoJ7_V73-11" value="Devuelve listado de&amp;nbsp;&lt;div&gt;direcciones coincidentes&lt;/div&gt;" style="html=1;verticalAlign=bottom;endArrow=open;dashed=1;endSize=8;curved=0;rounded=0;" edge="1" parent="1" target="AK56_XDHbvMIRoJ7_V73-4">
          <mxGeometry relative="1" as="geometry">
            <mxPoint x="450" y="410" as="sourcePoint" />
            <mxPoint x="290" y="410" as="targetPoint" />
          </mxGeometry>
        </mxCell>
        <mxCell id="AK56_XDHbvMIRoJ7_V73-12" value="Selecciona dirección" style="html=1;verticalAlign=bottom;endArrow=block;curved=0;rounded=0;" edge="1" parent="1">
          <mxGeometry width="80" relative="1" as="geometry">
            <mxPoint x="285" y="447" as="sourcePoint" />
            <mxPoint x="454.4999999999999" y="447" as="targetPoint" />
          </mxGeometry>
        </mxCell>
        <mxCell id="AK56_XDHbvMIRoJ7_V73-13" value="ALT" style="shape=umlFrame;whiteSpace=wrap;html=1;pointerEvents=0;" vertex="1" parent="1">
          <mxGeometry x="200" y="340" width="720" height="600" as="geometry" />
        </mxCell>
        <mxCell id="AK56_XDHbvMIRoJ7_V73-14" value="Asigna dirección destino" style="html=1;verticalAlign=bottom;endArrow=block;curved=0;rounded=0;" edge="1" parent="1" target="AK56_XDHbvMIRoJ7_V73-58">
          <mxGeometry width="80" relative="1" as="geometry">
            <mxPoint x="460" y="480" as="sourcePoint" />
            <mxPoint x="630" y="480" as="targetPoint" />
          </mxGeometry>
        </mxCell>
        <mxCell id="AK56_XDHbvMIRoJ7_V73-15" value="" style="line;strokeWidth=1;fillColor=none;align=left;verticalAlign=middle;spacingTop=-1;spacingLeft=3;spacingRight=3;rotatable=0;labelPosition=right;points=[];portConstraint=eastwest;strokeColor=inherit;dashed=1;" vertex="1" parent="1">
          <mxGeometry x="200" y="625" width="720" height="8" as="geometry" />
        </mxCell>
        <mxCell id="AK56_XDHbvMIRoJ7_V73-16" value="" style="html=1;points=[[0,0,0,0,5],[0,1,0,0,-5],[1,0,0,0,5],[1,1,0,0,-5]];perimeter=orthogonalPerimeter;outlineConnect=0;targetShapes=umlLifeline;portConstraint=eastwest;newEdgeStyle={&quot;curved&quot;:0,&quot;rounded&quot;:0};" vertex="1" parent="1">
          <mxGeometry x="450" y="660" width="10" height="130" as="geometry" />
        </mxCell>
        <mxCell id="AK56_XDHbvMIRoJ7_V73-17" value="Establecer ubicación en&lt;div&gt;el mapa&lt;/div&gt;" style="html=1;verticalAlign=bottom;endArrow=block;curved=0;rounded=0;" edge="1" parent="1">
          <mxGeometry width="80" relative="1" as="geometry">
            <mxPoint x="285" y="660" as="sourcePoint" />
            <mxPoint x="454.4999999999999" y="660" as="targetPoint" />
          </mxGeometry>
        </mxCell>
        <mxCell id="AK56_XDHbvMIRoJ7_V73-18" value="Devuelve el mapa" style="html=1;verticalAlign=bottom;endArrow=open;dashed=1;endSize=8;curved=0;rounded=0;" edge="1" parent="1" target="AK56_XDHbvMIRoJ7_V73-4">
          <mxGeometry relative="1" as="geometry">
            <mxPoint x="449.9651162790698" y="690" as="sourcePoint" />
            <mxPoint x="290" y="690" as="targetPoint" />
          </mxGeometry>
        </mxCell>
        <mxCell id="AK56_XDHbvMIRoJ7_V73-19" value="Elige punto en&lt;div&gt;el mapa&lt;/div&gt;" style="html=1;verticalAlign=bottom;endArrow=block;curved=0;rounded=0;" edge="1" parent="1">
          <mxGeometry width="80" relative="1" as="geometry">
            <mxPoint x="284.5" y="730" as="sourcePoint" />
            <mxPoint x="453.9999999999999" y="730" as="targetPoint" />
          </mxGeometry>
        </mxCell>
        <mxCell id="AK56_XDHbvMIRoJ7_V73-22" value="(Si ingresa la dirección manualmente)" style="text;html=1;align=center;verticalAlign=middle;whiteSpace=wrap;rounded=0;fontSize=9;" vertex="1" parent="1">
          <mxGeometry x="190" y="376" width="90" height="30" as="geometry" />
        </mxCell>
        <mxCell id="AK56_XDHbvMIRoJ7_V73-23" value="(Si selecciona un punto en el mapa)" style="text;html=1;align=center;verticalAlign=middle;whiteSpace=wrap;rounded=0;fontSize=9;" vertex="1" parent="1">
          <mxGeometry x="201" y="633" width="70" height="30" as="geometry" />
        </mxCell>
        <mxCell id="AK56_XDHbvMIRoJ7_V73-24" value="&lt;u&gt;DIAGRAMA DE SECUENCIA - UBER&lt;/u&gt;&lt;div&gt;&lt;u&gt;Caso de Uso: Solicitar un viaje&lt;/u&gt;&lt;/div&gt;" style="text;html=1;align=center;verticalAlign=middle;whiteSpace=wrap;rounded=0;fontStyle=1;fontSize=20;" vertex="1" parent="1">
          <mxGeometry x="190" y="112.94999999999999" width="360" height="30" as="geometry" />
        </mxCell>
        <mxCell id="AK56_XDHbvMIRoJ7_V73-25" value="" style="shape=image;aspect=fixed;image=data:image/png,iVBORw0KGgoAAAANSUhEUgAABLAAAAIvCAYAAABkwSJjAAAAAXNSR0IArs4c6QAAIABJREFUeF7s3QuYZWld3/vfu/auqu7q+72nu6dnhmEYkctRNAiSeI+ckJjjLQjGI56Tk+TJzWiOPsaYIxoQFUyOJkrwEmNyDN41KIiIRkUhUUSIw0VBkBlABubW09Nz6e7ae53nXe9613rfd71r713V1V2rqr71PDDdtfde612ftfY88vP//79mSZ9Xih8EEEAAAQQQQAABBBBAAAEEEEAAAQQGKmAIsAZ6Z1gWAggggAACCCCAAAIIIIAAAggggEAlQIDFg4AAAggggAACCCCAAAIIIIAAAgggMGgBAqxB3x4WhwACCCCAAAIIIIAAAggggAACCCBAgMUzgAACCCCAAAIIIIAAAggggAACCCAwaAECrEHfHhaHAAIIIIAAAggggAACCCCAAAIIIECAxTOAAAIIIIAAAggggAACCCCAAAIIIDBoAQKsQd8eFocAAggggAACCCCAAAIIIIAAAgggQIDFM4AAAggggAACCCCAAAIIIIAAAgggMGgBAqxB3x4WhwACCCCAAAIIIIAAAggggAACCCBAgMUzgAACCCCAAAIIIIAAAggggAACCCAwaAECrEHfHhaHAAIIIIAAAggggAACCCCAAAIIIECAxTOAAAIIIIAAAggggAACCCCAAAIIIDBoAQKsQd8eFocAAggggAACCCCAAAIIIIAAAgggQIDFM4AAAggggAACCCCAAAIIIIAAAgggMGgBAqxB3x4WhwACCCCAAAIIIIAAAggggAACCCBAgMUzgAACCCCAAAIIIIAAAggggAACCCAwaAECrEHfHhaHAAIIIIAAAggggAACCCCAAAIIIECAxTOAAAIIIIAAAggggAACCCCAAAIIIDBoAQKsQd8eFocAAggggAACCCCAAAIIIIAAAgggQIDFM4AAAggggAACCCCAAAIIIIAAAgggMGgBAqxB3x4WhwACCCCAAAIIIIAAAggggAACCCBAgMUzgAACCCCAAAIIIIAAAggggAACCCAwaAECrEHfHhaHAAIIIIAAAggggAACCCCAAAIIIECAxTOAAAIIIIAAAggggAACCCCAAAIIIDBoAQKsQd8eFocAAggggAACCCCAAAIIIIAAAgggQIDFM4AAAggggAACCCCAAAIIIIAAAgggMGgBAqxB3x4WhwACCCCAAAIIIIAAAggggAACCCBAgMUzgAACCCCAAAIIIIAAAggggAACCCAwaAECrEHfHhaHAAIIIIAAAggggAACCCCAAAIIIECAxTOAAAIIIIAAAggggAACCCCAAAIIIDBoAQKsQd8eFocAAggggAACCCCAAAIIIIAAAgggQIDFM4AAAggggAACCCCAAAIIIIAAAgggMGgBAqxB3x4WhwACCCCAAAIIIIAAAggggAACCCBAgMUzgAACCCCAAAIIIIAAAggggAACCCAwaAECrEHfHhaHAAIIIIAAAggggAACCCCAAAIIIECAxTOAAAIIIIAAAggggAACCCCAAAIIIDBoAQKsQd8eFocAAggggAACCCCAAAIIIIAAAgggQIDFM4AAAggggAACCCCAAAIIIIAAAgggMGgBAqxB3x4WhwACCCCAAAIIIIAAAggggAACCCBAgMUzgAACCCCAAAIIIIAAAggggAACCCAwaAECrEHfHhaHAAIIIIAAAggggAACCCCAAAIIIECAxTOAAAIIIIAAAggggAACCCCAAAIIIDBoAQKsQd8eFocAAggggAACCCCAAAIIIIAAAgggQIDFM4AAAggggAACCCCAAAIIIIAAAgggMGgBAqxB3x4WhwACCCCAAAIIIIAAAggggAACCCBAgMUzgAACCCCAAAIIIIAAAggggAACCCAwaAECrEHfHhaHAAIIIIAAAggggAACCCCAAAIIIECAxTOAAAIIIIAAAggggAACCCCAAAIIIDBoAQKsQd8eFocAAggggAACCCCAAAIIIIAAAgggQIDFM4AAAggggAACCCCAAAIIIIAAAgggMGgBAqxB3x4WhwACCCCAAAIIIIAAAggggAACCCBAgMUzgAACCCCAAAIIIIAAAggggAACCCAwaAECrEHfHhaHAAIIIIAAAggggAACCCCAAAIIIECAxTOAAAIIIIAAAggggAACCCCAAAIIIDBoAQKsQd8eFocAAggggAACCCCAAAIIIIAAAgggQIDFM4AAAggggAACCCCAAAIIIIAAAgggMGgBAqxB3x4WhwACCCCAAAIIIIAAAggggAACCCBAgMUzgAACCCCAAAIIIIAAAggggAACCCAwaAECrEHfHhaHAAIIIIAAAggggAACCCCAAAIIIECAxTOAAAIIIIAAAggggAACCCCAAAIIIDBoAQKsQd8eFocAAggggAACCCCAAAIIIIAAAgggQIDFM4AAAggggAACCCCAAAIIIIAAAgggMGgBAqxB3x4WhwACCCCAAAIIIIAAAggggAACCCBAgMUzgAACCCCAAAIIIIAAAggggAACCCAwaAECrEHfHhaHAAIIIIAAAggggAACCCCAAAIIIECAxTOAAAIIIIAAAggggAACCCCAAAIIIDBoAQKsQd8eFocAAggggAACCCCAAAIIIIAAAgggQIDFM4AAAggggAACCCCAAAIIIIAAAgggMGgBAqxB3x4WhwACCCCAAAIIIIAAAggggAACCCBAgMUzgAACCCCAAAIIIIAAAggggAACCCAwaAECrEHfHhaHAAIIIIAAAggggAACCCCAAAIIIECAxTOAAAIIIIAAAggggAACCCCAAAIIIDBoAQKsQd8eFocAAggggAACCCCAAAIIIIAAAgggQIDFM4AAAggggAACCCCAAAIIIIAAAgggMGgBAqxB3x4WhwACCCCAAAIIIIAAAggggAACCCBAgMUzgAACCCCAAAIIIIAAAggggAACCCAwaAECrEHfHhaHAAIIIIAAAggggAACCCCAAAIIIECAxTOAAAIIIIAAAggggAACCCCAAAIIIDBoAQKsQd8eFocAAggggAACCCCAAAIIIIAAAgggQIDFM4AAAggggAACCCCAAAIIIIAAAgggMGgBAqxB3x4WhwACCCCAAAIIIIAAAggggAACCCBAgMUzgAACCCCAAAIIIIAAAggggAACCCAwaAECrEHfHhaHAAIIIIAAAggggAACCCCAAAIIIECAxTOAAAIIIIAAAggggAACCCCAAAIIIDBoAQKsQd8eFocAAggggAACCCCAAAIIIIAAAgggQIDFM4AAAggggAACCCCAAAIIIIAAAgggMGgBAqxB3x4WhwACCCCAAAIIIIAAAggggAACCCBAgMUzgAACCCCAAAIIIIAAAggggAACCCAwaAECrEHfHhaHAAIIIIAAAggggAACCCCAAAIIIECAxTOAAAIIIIAAAggggAACCCCAAAIIIDBoAQKsQd8eFocAAggggAACCCCAAAIIIIAAAgggQIDFM4AAAggggAACCCCAAAIIIIAAAgggMGgBAqxB3x4WhwACCCCAAAIIIIAAAggggAACCCBAgMUzgAACCCCAAAIIIIAAAggggAACCCAwaAECrEHfHhaHAAIIIIAAAggggAACCCCAAAIIIECAxTOAAAIIIIAAAggggAACCCCAAAIIIDBoAQKsQd8eFocAAggggAACCCCAAAIIIIAAAgggQIDFM4AAAggggAACCCCAAAIIIIAAAgggMGgBAqxB3x4WhwACCCCAAAIIIIAAAggggAACCCBAgMUzgAACCCCAAAIIIIAAAggggAACCCAwaAECrEHfHhaHAAIIIIAAAggggAACCCCAAAIIIECAxTOAAAIIIIAAAggggAACCCCAAAIIIDBoAQKsQd8eFocAAggggAACCCCAAAIIIIAAAgggQIDFM4AAAggggAACCCCAAAIIIIAAAgggMGgBAqxB3x4WhwACCCCAAAIIIIAAAggggAACCCBAgMUzgAACCCCAAAIIIIAAAggggAACCCAwaAECrEHfHhaHAAIIIIAAAggggAACCCCAAAIIIECAxTOAAAIIIIAAAggggAACCCCAAAIIIDBoAQKsQd8eFocAAggggAACCCCAAAIIIIAAAgggQIDFM4AAAggggAACCCCAAAIIIIAAAgggMGgBAqxB3x4WhwACCCCAAAIIIIAAAggggAACCCBAgMUzgAACCCCAAAIIIIAAAggggAACCCAwaAECrEHfHhaHAAIIIIAAAggggAACCCCAAAIIIECAxTOAAAIIIIAAAggggAACCCCAAAIIIDBoAQKsQd8eFocAAggggAACCCCAAAIIIIAAAgggQIDFM4AAAggggAACCCCAAAIIIIAAAgggMGgBAqxB3x4WhwACCCCAAAIIIIAAAggggAACCCBAgMUzgAACCCCAAAIIIIAAAggggAACCCAwaAECrEHfHhaHAAIIIIAAAggggAACCCCAAAIIIECAxTOAAAIIIIAAAggggAACCCCAAAIIIDBoAQKsQd8eFocAAggggAACCCCAAAIIIIAAAgggQIDFM4AAAggggMB1FCjPnlf5OV8sc/FxlRcvqbj4iMpHHpIeeUC69KDM45eu49k5NAIIIIAAAggggAACO0OAAGtn3EeuAgEEEEBgoALlc5+tte//Lrc6k1nk2kTFQ5dU/sVFFR99SOXH7tfo4/dqcu+fy3zybplLD8lMJtLaVJrY/0yk6Zo0nQ70ilkWAggggAACCCCAAAKbL0CAtfmmHBEBBBBAAIFGoHzWp2vtX79cWl1uVXJBVvOqiYOuK2vShUdlPvGIdN8Fmfvvk3nw49LFB6SHH5O57xGVDzys4sJ90qWHpOkEfQQQQAABBBBAAAEEdpwAAdaOu6VcEAIIIIDAoAT2HtDkO/+Fpp/7GXEJ1swQy751zhumpXT5qsyjl1U+/oTME49Kj16SPvKAxn/yFyrf/yHpz98j8/AnB8XBYhBAAAEEEEAAAQQQ2IgAAdZG1PgMAggggAAC6xCY/tNv1uSLv0g6YD9kpKKusirqTMv+s+9nXpAVfi7KvIxUSrpwSaM//oj0zvdL73m7zL0flp64LPPEFeny41RsreM+8lYEEEAAAQQQQACBrRMgwNo6e86MAAIIILBLBCYv/Cea/pW/Vl1tMZLKsVG5JGnJuP/skYz9/ZKRqX9fve6DrfWEWHVG5mgzVVxPXJbuflDmwx+T+dgHVdz7CenD90n33CNz/0d3yR3hMhFAAAEEEEAAAQS2mwAB1na7Y6wXAQQQQGDbCUy/8Gs1+ZIXSqO21MplUkHAVEilfbn6j5EZGZllqdwrFXuMJvuMtDeZjzVLIq3Gyr3XHu7KmspLT8g8+qj00EPS2z+k0X9/p8z7/of0xGPbzpoFI4AAAggggAACCOxMAQKsnXlfuSoEEEAAgQEJlJ/+BVp7wddKp09EoVUnxJJUBsGTSSqvbOdhuVpUoZZZNSpXXdWWRqVrS/Qtif7aFwmxkhyt+eiVqyredY/Kt7xTxV2/J91/v8zFR6XHL0klOyAO6PFiKQgggAACCCCAwK4QIMDaFbeZi0QAAQQQ2EqB6VOepcnnvkR66q3S0rheikuX2kKsuN1vVpBl31nYcMsGWmMbYklaMSpXpHLFSCvu79U/OwHVjOHwfS+tTaSPPKji/XeruPv90nvvkd73PloOt/Kh4twIIIAAAggggMAuEyDA2mU3nMtFAAEEELjxAtMzt2ry179BesaTk90F28SoLbZqfzcrxLJXMcrMxprULYiuFVHSAaNyv5EOSloOr70nrZqz+aGxxVePX5YefUz64F9Ib3y7Rm95g8wjD954WM6IAAIIIIAAAgggsGsECLB2za3mQhFAAAEEtkqg3HdQay/6TunAPun8qaAKy67o2kKsqmswCbIm6Xyt+sJthdbogNHUztOy7YdjI2MruGa2HnbVTDocfm0i8/YPyvzGb8u89x3SfRdkLjxAq+FWPXCcFwEEEEAAAQQQ2IECBFg78KZySQgggAACAxMwRmtf+13SngMqz5+WDq5mFrjxIKtpKfRBVf3PaSbIsr+qug8LaboimRWjqW0/tEuyQ+L3BJnavGqs3C6HFx+T3vdhmQ+8V8Xvv1/64z+UuXRhYDeE5SCAAAIIIIAAAghsNwECrO12x1gvAggggMC2FJh8xTdIR25TeeSAyrOnXOFVuylhfU1xYpQOeZ/XUmjnYqWZk6vGsj/xK3bmexCZVWuxx5/YNsODUnG4rtTqrDHm757Rp2ilystXpUcuybz5LhW/+Isq/vyubXnvWDQCCCCAAAIIIIDA1gsQYG39PWAFCCCAAAK7QGDyhS+WbntOdaVTO8x9NG4DrE6lU1qNtfiA91yIZSuxykyIZX+VBln2fTbIqt6/JBX7jKZ2ftaqqf5uh8anwVtviBXuqjiZyrznoyp+9bdk3v12mY/eK11kbtYuePS5RAQQQAABBBBAYFMECLA2hZGDIIAAAgggMFtg+qzPVfmsL6/eVJ48ovLk0foDxgVC2Xa9/p0Kw2ose6B0DlY64D0KppKTuRbEcP1GbehV/37s2g3LvVK5T5IdDG/bDYOfhYIs+/4HH5F534c0evd7VP7G76v48/dK0wmPEAIIIIAAAggggAACvQIEWDwcCCCAAAII3ACB8uYna/r8f+ySqsJo+tTbgh0J6/RolFtIHWIlAZN/57y2wjTImlWNNZoXYtXzs2yVlw3EJnslHTPSicWCrDR0U1lKdgD8O+/W6Md+TuYPf/0G3AlOgQACCCCAAAIIILAdBQiwtuNdY80IIIAAAttPYM9eXf2a765qn2yl0vTcSenwgeQ6+qqxrm3Au63Oys/GSmZu+QHv0aq61VjVWKzwmEaa7pdKG2YtS+UeyYzzE+A7IVaTxEn60CdkfvU3NXrH26UP3i3zKMPft9+DzooRQAABBBBAAIHrI0CAdX1cOSoCCCCAAAIdgatf/VJp9YgLkw4fUHnmhFSkU9Lr6erZ4en9Qda8lsL17lSYthTaiiu3q2H7k5u3Vc3I2itNV6XikNHUthpmfnqDLPve+y/K/Mmfqfidd0q/8esqHr6PpwkBBBBAAAEEEEBglwsQYO3yB4DLRwABBBC4cQJrX/lNKg+fcydcXpLOn5b22G3/0pBnfkuhPYTbpbD6U3MR81oK09CpDaa6QVNnp0LbNpjJo9I2Rb+Yqs1wRdLRQuZ09zJnhlj+II9fkfnJ39T4P/+w9NgjqtoO+UEAAQQQQAABBBDYdQIEWLvulnPBCCCAAAJbJbD21/5PlWee0SZPURthrlJpfkthG2TlQyz3enxsG2LFsZerrsrtVOgrsYLar+p9i1Rj2XM07y2Myv2SOVIPf7cD4Osqs4WCrEuPq3jjH8j87n+Tueu9Mg8/sFW3kfMigAACCCCAAAIIbIEAAdYWoHNKBBBAAIHdKTD5y1+m6Z2f01y8ObBP5S03ub9nqqnaN9ZthZ2MK4yV/DEWD7LWs1NhXI1lgykjGzyF9VBpm6Jfv3+PC73cnCyzR5oeksxB9/cq7Mp3G8YPy8XHZf78bpk3/Q8Vb3yjDO2Fu/PLxFUjgAACCCCAwK4TIMDadbecC0YAAQQQ2CqByTM+R9Nnf1l8+qc+SRoFA698yNNZ5PxqrFxLYRoMpdVYudCpbRPsJkoL7VRoi6uSqi+7jrbKK0jsRlJx2Kg8KZUrUpmd/ZW/Y8UDFzV6za9Kv/r/SZcvS9PpVt1azosAAggggAACCCBwnQUIsK4zMIdHAAEEEEDAC5S3/S+afP5LqhbCpnLpxGHp5LFwoFVdjdVXjpQLspLdBNc5GysXYvXNxrLvtdlUcsYknGoDrNxVZNsV7Rv3SzpkZPZL06DFcN4TVHzkPulXfl3F771Dev9dMtPJvI/wOgIIIIAAAggggMA2EyDA2mY3jOUigAACCGxfgfLcUzT9gq+TxnuqAKu0SdDSWHryze1uhGHl0qxqrCp1Si1yQdZiA979u9LKqb5qLBd6hed3ody6Z2OlA+xtOLYklXslc8xoenjB+z0tZT7+kPSOP9boJ35a5sPvX/CDvA0BBBBAAAEEEEBgOwgQYG2Hu8QaEUAAAQR2hEB58rymX/ASafVIcz3TopC5+ZTKA/vaa+yEWPaltJapLoPKttwFs7EyIdisnQrTXQrtma/nToUuIJsx/GqPVJyUJoeMNJ791ha11Oi1b1XxUz8q3XevtHZ1Rzw/XAQCCCCAAAIIILCbBQiwdvPd59oRQAABBG6oQHnkpCZf8BKVh26qIhsf25THD6s8lbYRBqFOpiUwSLtcJVYnA9p4NZY9dhpkuYqx2TsVlmsTmasTldNp9Z+q17Ao3IyvpbGKUdHZEXFeQNZc5x6ptAPfD9WthgsMfDf3XZR502+peNNbpfe9k9bCG/q0czIEEEAAAQQQQGBzBQiwNteToyGAAAIIINArUO4/VAVYOn5LtYtfFRTZYGh1j2SrsJaW4s+mg9B7g6xgl8IZQVZuyPusaqzcbCw7Jr39TH2yspQuPKLyicvSpJTs323iVQ/MMrbX0AZZy0vS/r0a7V3pGM0KyJo32wDNVmHZj5+QzCEzf+h7KZlPXpDe9i4Vr36Nigc+yROKAAIIIIAAAgggsA0FCLC24U1jyQgggAAC21OgXFpxFVhn7qyKk6IQ69Yz0r69bi5W+rNQS6H90MZ2KoxCrOow8RpGmTU1s7Gmpcr7LkiXr/TcFJMeTuWeZRWHD8isLHUqsrID3pMjN+vda9sLjaYHtFh74eOXZf79r2j8xp+VHnpIYtj79vwisWoEEEAAAQQQ2JUCBFi78rZz0QgggAACWyJgjNY+/yUqb3lGe3o/A+r4EZlTR5vfLxZk9fTRVa17uStMZ2PVoVf91g1VYz34sMpHH19gOFUSZNmKrNUVFYf2y9hB9snPvCArXKv2Ghk77P2grWabc2fLUsX7P6bi9W+Sfu23ZR742JY8CpwUAQQQQAABBBBAYH0CBFjr8+LdCCCAAAIIXJPA5Iv/jqZnPzU6RlWNVYykT7nNNRb6zrx51VjNe3NBVt+Q942HWP50fqdCO/Nq+skHVU4m9fXMG0zVrcaq2gqPH9LI/jPzM2vIexRi2VOPjIydkXVaKpfn3KYrazIf+YRGr/kZmd/+NWmydk33lQ8jgAACCCCAAAIIXF8BAqzr68vREUAAAQQQiAQmn/FXNX3m/9pRqbKq8zep3L8varnLVmJVSVI65H1jIVZ7qPbzUTBUnSo+dhNgPXFF5QMXpImdjOVnY80PsdLla2kknTyqUaYSy7533k6F8Xpd9dnomDQ5Vs/LylajtbfAvOkujf7Dv5W552PSlSd4YhFAAAEEEEAAAQQGKECANcCbwpIQQAABBHauwPRpz9XkL31FZ85UFeocOqDy3Mn64uNqpcVaCqujdPFsABVue9i8Y/GdCl3olLz/ylWV97cBVhti9awjWpk7VnPI5bHM8cMqMpVYdsC7/bFthdnrq1/vBFlLUnFQ0hFpun9Ol+ODj6h4w+/I/NzrVHz0gzv3AeTKEEAAAQQQQACBbSpAgLVNbxzLRgABBBDYngLTJz1Dk895iVt82iI4Hsvcdlblsp8JlRmA3tmZMAmsZu1UaCuRsgVSaVth/Kbe2ViTqcpPPiiz5lsI3WV1dinsvVVJiLV/r3T0YBWU+Sqv8KM2yHIhVn+QlVaPVRc8kmQHvZ+VNKu10FaSPfKYih/4aRWv/1kZ2gq355eMVSOAAAIIIIDAjhQgwNqRt5WLQgABBBAYqkB5061ae/4/bpcXBlJFIXP2pHRgXxAEJSFPFRAtslNhXyvfJuxUGJ7/4qMqLzzSqc5ab5BVHXJsWwmPSEtjVzBmTDZvW9eA9/AItrXweNBa2Ec0KWXecpdGP/ojMh/8oHT18lAfJ9aFAAIIIIAAAgjsGgECrF1zq7lQBBBAAIEhCJSHjmntS7+1WwnlQ6Fjh2VOHm2qs9JqpjA7uqYgK7tTYa6l0Krl52NVLYXTqXT/BZVPXKl40zbDTltf702o2xxPHJFZXWneZc/cV41lj+3aC/NJVN+5zbJU2l0L7aaPe2c8FZ98RMUbf0uj//Iz0v0fH8LjwxoQQAABBBBAAIFdK0CAtWtvPReOAAIIILAVAuV4SWt/+xX1qevQxi/EBkL79kq2Cms0isIgF8ZstBorF/LUoY9tr+v8pC2F8ec7LYVrE5X3PSRddTv5pSGW/V24/lnuo1PHNN3b7fMb5arOmgHv6w+xqjXYTs0TkuzYsb5B79NSo4/eJ33bD6p4z+9txSPDORFAAAEEEEAAAQTs/425pM/zs1EBQQABBBBAAIEbIHD1f3+FVCzVZ0pCLNtGd8sZacWFOGEYFFZjza3Ech9ur6Z3AHp9/k6As/iA92qNl6+qfOiidOXqnBCrP2yyr4xOHpXZu1JVVlXzrspSxh77ylUVo5GqHQtti2HRLridjdW/A+KsSjCzaoOsUuVB40Kt7I9R8RO/ouIXf0Hmo3ffgKeEUyCAAAIIIIAAAgiEAgRYPA8IIIAAAgjcYIHJV3yTpvtPBWetgxefv9x0XObwwWjWlQ+yqv+v06ZXY9VhVzV4KsVYR5Blh7nbmViPPVEFT2kA54/cO+R9PNLo5BGZJZsimSrEmly5KmOru+yAdftTFCpXllUc2R/tWLjhnQr9ouxl2kHvxyTZ9sLcz2Qq84GPqvjJX1Hxa/9VmsbD62/wY8TpEEAAAQQQQACBXSVAgLWrbjcXiwACCCAwBIHJX/+7mh57Sn9YtH9V5vxpN9+prqJymVVuFlW8U+Fic7GaFCzh6BvwHr/fLSM/F6t65fIV6YGHVdahU39LYXAcWwh2+KCKg6tRhrb2xFWZTzzYtVpekjl1VMUoLh271mqsKiM7LJVnpbJvx8KpZN78Bxp9z/fJPHz/EB4p1oAAAggggAACCOx4AQKsHX+LuUAEEEAAgaEJrH3eC1We/8x6WUkLoYyV+sd/AAAgAElEQVRMYaQ7zldzsOxPGEr1tRQm+VZ3p8J0htSslsIqxZldjdUermfAu63AeuwJlY9dliaT6j8mGVpQVWLZVsDlpWr2l7Hzv+ofS1AdeTrV5P6L0hPJToCjQub4YRV724Hv4X3e8E6F/iD2sDdJshtCZoMsI737oxr98A/J/NF7ZB5/ZGiPGetBAAEEEEAAAQR2lAAB1o66nVwMAggggMB2EFj7rOervPMLg6UmLYQ2OzpzUjpse9ranxseZFUBUyqaG/BexWfNG6Mh7/a3dsi7DbHWJjK2KssGWYVUjkYajccqV5ZU2sQq6V90OxBK5dpEk4uPSY881hahrSxJxw/LjEfVp7JVXvXw+I3sVNhczH7JnKh3Lcw9XI9eVvGGt2r0mn8vXXhgOzx+rBEBBBBAAAEEENiWAgRY2/K2sWgEEEAAge0sUD79s7T2rC9PAps4xCr279P05tPVZfYNbE9Dm2vbqTA3AH1jOxW2c7rcXUrX6YKp7vkmPVVho/qttqhrenVN5aSUWY3Louzx+ka4u+PGIVv4/Mwa8N7427bCW3JVafWR/uIBjb/h5TIfuquqGuMHAQQQQAABBBBAYHMFCLA215OjIYAAAgggMFegvPWpWvsrXxcNY+8ELMtj6dYz0tgNNJ+162C3rdAlNnN3KuzsUpgLeepevjkD3qtD2eqqq2vun8aotPOp7EB22+6XCazS0KmaX2XDH99qaNsLq8qsuqMxCaLaNsGWvC/ImjcbKw6xug52+cWyND0llYeU363wsSsqfvTnNfqlX5AuPjT3OeANCCCAAAIIIIAAAosLEGAtbsU7EUAAAQQQ2BSB8thprb3gG9tjdSqPTBX66OxJaf9q/b7ZoVQ45D3cqTDNjTY+5L0OsjothXXYc/mq9PAjLsCali49s+GTneO1uuKuIxNk+fa/6ZWrVYtg9XmVboaXraqq52PZOVnuvWGjodup0AZZ4U9fhVf83ny91twgy44l22tbPKWpnY+V/tih83f9qUav/HGZD75rU54XDoIAAggggAACCCAgEWDxFCCAAAIIIHCDBco9q1r7ym+PS6TSNjcb3pw4qvL44WB1dYhVZ0b2H31zsdxr/qPXeadC29v34MVqaHs3Sqp/YyvKjh2W7D+TtsLyicsy913o3IVw/dqzXM0EM0tL1dz3OH4yVYiVzIjXKFP1Vbk0oVdf02FoF2CHd2IsmVPS9HjPnLALj2r80h+QedtvSRMbyvGDAAIIIIAAAgggcC0CBFjXosdnEUAAAQQQ2IjAaKyrL365++SsNr6D+2VuOqGyk9jU8578bCgb5wRZTN9OhWmhV6caaz07FfpKLHtQ2/Z3/8PS5SsZjWBhNrw6cUQau90Vq3WWpUobXtW7DObnetWHLQqZg/ulA6uVW7NToTtaU4kVBlmzqrFsQHYtA96rarAD0vSkpP2Z+VgXH5f5xV/T+KdeJ913z0aeFD6DAAIIIIAAAgggUAsQYPEoIIAAAgggcKMFqgDrZW3ikSZLdeZjVlak8zfVgY8JKqr8gq99NpY90swga+YAdNsmWB1B5sFHpEcfz6yxXWsVM9l2wuNH2vetTaT7L9Stgz7T61ZGNdVYppAO7JM5bBMjl9vVY7L8/2nTqcbybYq5equ2cusaqrGWpOKoNDmTeZDKUuaP/kyjV/5bmQ+850Y/aZwPAQQQQAABBBDYMQIEWDvmVnIhCCCAAALbRqAY6+qLvkMqbCVSVDrVXoIPtW47J60s14Va7r3prnmz5lz1VWNV4U9w6sVmY+VCnvp3V6/IPHBRmkzmhljVbK9xXcJlB74/cEGyM7SSn/5qLFO1I5p9e3pDLPtCu/ugO/D13qmwtIVhZyX7z86WiPc+rNFLX6XiXe+Qrl7eNo8qC0UAAQQQQAABBIYiQIA1lDvBOhBAAAEEdo9AUWjtBf9Q5aGz3Z0Ik2osc/KoymNHXFATVEO1g9o9W1KNlSRUvW2F80KsNOlKq8Wa0xvp8csyFy811VTdgeg2RSpkzp6QbCVVHcaZi49KFx7pVoI11xwHZ/a4VXXaicPV8fyP/VNq1LYJto9XX5A1rxorDQ7TB7ZqKbQ7FZ6QZG+ZG/fV/lxdU/ETr1fx0z8l89B9u+d550oRQAABBBBAAIFNECDA2gREDoEAAggggMC6BGyA9cV/R+WxJ7mP5dr0fBKzukfm/Jm6qqke4h6ESLlQpa+y6rqHWPZC1tZkLj3mBrrb+VZhgZl9/cgBN8MqLFGyQ+BtFdbjrjIprQZz15NUfy2N3DytpaWI3rULbnynQnswV7l1DS2FNklblcpzbsfC6OfqRKO3/LHMv/w2mcvp0Pt1PUW8GQEEEEAAAQQQ2FUCBFi76nZzsQgggAACgxAwhdY+/29LN31qu3Ne36wpuxvhHbdIo1EmxHJBy2aEWNWRZlVjZQe854KeOmSbTlTaQOrqFWlayozHKlf3VO2Q8bnqk9qw64GHZZ6wwVdmLleyc6GWxtLJozLjwk7g6tzWdMC7rVjLVWNdr50KKy57qbal8EB3p8Li3gdVfPMrZP70Lmmt2z45iOeURSCAAAIIIIAAAgMSIMAa0M1gKQgggAACu0TAGE2e95XS+We5AKvZDS9fjWXOnpLs7nvR/Ku4ZTAXZKWFRGFl04ZnY61np8KqHCpXzNQGTmHLnyZTlZcek7HVW2tr9fV2wym7dnNwn4rDNhlSMLQ9fq/92yID3u0xbFth+hOHXvmKrLlthbYa66ikU1Lpsrvmx9z7kIrX/IyKX/7ZXfLgc5kIIIAAAggggMDGBQiwNm7HJxFAAAEEENiYgDGaPvtvqLz9s5vP2/lLcbrh/2ZkbFBz08no5TY4CYOs9e1UmB+SHrYpulNufMC7/bSR7Kz6zk9PiGXbCaelyst2ntaj1Twtd631+0eFzMH9Gtk2xCR0aoe2x5ijTvZkOgPeXdiVD6nmzsYKlpdtPbSbNdquyXOlpqvJOR67rOKnfkujH3rlxp4lPoUAAggggAACCOwSAQKsXXKjuUwEEEAAgQEJ2AqsT/ur0lM/r1OeFAVZPrixbXe3nHED0IOQpS/EcqFTeL3JgPckqOkeMxNiVSFNEr6stxqrnbdeL64nxKpfra5hbeL+Y4MtG14tLzXryIVOLmzKVG0tUI1lTzt/p8JFKrGiRKu5EdVsrnPS1A54T0K94nW/rdGrf0S6794BPagsBQEEEEAAAQQQGI4AAdZw7gUrQQABBBDYRQLTp3+uymc+P7jiNhjxrWvNi0tjmbOnpT0rTTA1O3QKjrXZQVauSmmhIKuerN4JseKwJ2opDIMsH3ml4Vs9Gyu8TOvngsBuS6ELqbysqVo40+o3+3LVpph5HudWY2WqvcLDmJFU2gDrtKRg/ryZTKW3v1uj7/0xmbvfvYu+CVwqAggggAACCCCwmAAB1mJOvAsBBBBAAIFNFZjc+RxNn/U3q2Omc5r8iZpgxVZe3XRCOrAvGto+f46VS1M2Y8j7zAHvTR5UpzdBQNRF6wuykrApCaDia3ABU/iTq5zqC7JshhZ/PB9k9Q14t+e9pp0KjTQeS9PbpKm9peHPg49o9I3fo+Ku/76pzxsHQwABBBBAAAEEtrsAAdZ2v4OsHwEEEEBgWwpMb3uWJs/5iiqQchU/4WXEFVTVoPdjR2SOH6mLiuJZVz7M8QPh/TFdCdH1CbFcMLZIS2G7hvYK6xCruvD09qVthfEbwiArDbHskdIgy4eAG92pMNemWF17tKvhxtoKzbJUnpF0OHG4536NX/VDMm/9nW35bLNoBBBAAAEEEEDgeggQYF0PVY6JAAIIIIDAHIEqwPosG2C58MI3rOWCrCqYOrBPpR3kXuSHti8yGyutYoqDLhfKhEna/GO65c8MsuZVY1XlUDmsjQdZuWqsvtY/F1CF5zfBrobN7an+0LdTYduCuEiQlbxnXO9SaGf0hy2Fn7go82Ov1eiXfl6aTvk+IYAAAggggAACu16AAGvXPwIAIIAAAghshcD0/NM0ec5XSsVykJLMqMZaXtLUDnIfuenf6awoG07Nbyl0aVlnwHsdonmHMJBa7Jg3eKfCeqHzqrHSFsA2xEou2M5Uz1TAtbsatrdowzsV9lTYefNiv1TeIpX141D9/sqaih/9GY3+03+W1q5uxWPKORFAAAEEEEAAgcEIEGAN5lawEAQQQACB3SQwPfcpmjznb0njlbYEKahWqnasa0Dq0OnWc9LyUlTx5IKstk0wbavr26kwW40VhCxpVdVCOxXOG/C+oWqstBIrDp9mhViuNbM7jL1vftUi1Vj27H07Fa5vwHumWsvOwzonaTX4Jly+quIn/qtGP/la6dGHd9NXhGtFAAEEEEAAAQQiAQIsHggEEEAAAQS2QGB65g5NnvNCaWlvkFRFqVXVVhgNTz91XDp8sFptN2BaJMhyoUkaesWXn5wz3fUv+LsLj8JjuiN1Wgrbk7o39AZZ12+nwrRyatZOhS748irr36mwrdzaQEuhrcCyOxQeDZwmUxVvepuKf/1qmYfu3YKnlVMigAACCCCAAAJbL0CAtfX3gBUggAACCOxCgfKm26sAq1wOtqELg53gz35G09TuQnjTyaRVMD8rylcmza+ccgFNGiqlxVSz2wo3OcTy67HzsaKfjVdj2cPkKqf6wiZrHlbAVcGcVM3HCn/6dirsC8jCz+Z2h2wCPjvc3c7FCn6KX3+HRi97OZVYu/DfF1wyAggggAACCEgEWDwFCCCAAAIIbIFAeepWTZ77VSpX9sdTzHtCrOrX45HKJ91clQfFwVQ+2MmGWD4c8mPj6yqqOMRq3hRXgAWp1iID3jdeiVWfvyqFWt9OhWlrZNpS6Suxwhyqr/XPB4dRK2cmxOprKWx3KsxXYlWhWPRS8r4TkjklleFw9zf+oUY/8O9kPvmRLXhqOSUCCCCAAAIIILB1AgRYW2fPmRFAAAEEdrFAefK8ps/5KpV7DlYhTRUghdvxBe15/tfVNKfbzqlcbhMNH9B0dxD0uO3Q9vmhUzrg3a0pXErptkx0q03KtPLztq6lpbA22cBOhfOCrLRyqg2bkvtQ71IYRkvWwB7f3bPaomeXQvvqhquxLPUhqbzZhpfBud72Ho2++/tlPvbBXfwN4tIRQAABBBBAYLcJEGDttjvO9SKAAAIIDEPg+NmqAkt7Dzc7A+ZDrCBQsYHG6ZMqD9mqLR+cxHOz4la/9l39LYXu+LldDcN4Zn0the2aoxle6UE6fw+uNbpLdXzkNmAMfnKVZ/Ex1rtT4az5VelOhfGuhv5+uFbF3M9GZ2OZVam8wyZk7VGL332fRt/+7dLDDwzjeWYVCCCAAAIIIIDAdRYgwLrOwBweAQQQQACBnEB59CatPferZPYdbequbPjUVvUEIYj/o20dtEPcTx5rQi9/7Ki6KqiSquKcoITKBjpVTVV9zHT+VTS8PNPe1hdI5auxNjobq6/lzrgQZ0bbXRrE2evfrJ0Kq27GOC+sFpMGWe593d0P7Vo2ulOh2SuVZyUFHaejt7xX5vv+X5mPUonFv2UQQAABBBBAYOcLEGDt/HvMFSKAAAIIDFCgPHLKzcDa58IoP2/JByJuyZkQa3WvzLnTdSrlXu8LaNazU2HY/pcLvVrC2aHU9Q+y+nYqjEOv2RVl3fZH++n17FTY3i93n3ID3vtmY9lPbKgaa0Uy56TSbUTpnpA/+FONXv59hFgD/I6zJAQQQAABBBDYXAECrM315GgIIIAAAggsJFAeOqG1z36RtP+4jyKqf7pgxIUxbse7JMRaXpbOnpaWxlHb36wqo25bYRx8zd6psBuS+TXNag+MZ3O560gvZ+ND3vtCrNgrrDzzN2VeS2EaOs2aX5XbqbANptrHoG+nwvWFWMG13SbpUPtoVO2EL/126QLthAt9+XgTAggggAACCGxLAQKsbXnbWDQCCCCAwHYXKA8e0+S5L1J58GR0KTbm8cGQH5gezcYaj6QzJ6W9ezqzq2YNLo+Hr/tT9gx4b7KSMHSq2xs32FbYO+C9OlfSMhj+vXkp11a4nmqs9vPzBrzf6J0KO0Fl8nB3diq0s8DOSHLFe9VP8bvvVfHKfyPzsQ9t968G60cAAQQQQAABBLICBFg8GAgggAACCGyFwIEjWnvui1UePOXOngRDft6Sb09zIYadAWWkUydkDuyrWwfDlr5MS2EQEIU7FcaZ0aydCtOWwXSnwsVbCtMgZuaA9zTYmhVk+cFUnYyr/UVb/ZUPstLWR3v63E6FLmzq3LDqtoRni3c1bD+RG/Du556tK8iyE+VvknSifXiN3Z3wZa+S+cQ9W/FEc04EEEAAAQQQQOC6ChBgXVdeDo4AAggggEBeoNx/SNPnvFjTwzaFyGUirvopnOXUhCfHj8kctT1kfv7V7JCpO5cqiFqCQMYNeI8rovKVU2mI5QKdRVoK+9fsDDptheupxuoMeHfranh7wqdZbYW59r9r3amwbzbWvAHvrV37wIzOShPbhVrvUFj82h+peMXLZS5d4KuHAAIIIIAAAgjsKAECrB11O7kYBBBAAIHtIlCuHtTks18sHToTDWGv1p9WYzXVPXUb3+EDKk8cr9Ktpt2wLjFaOERKgqrOToXBgRbfqXDxIKs9ZqaCK9lF0ZkEKPPaCjcQZM3bqTCtnJom4WEbKbk/pUPer9tOhSMjc0oqbSdq7WLe/Ecav/LfSA/8xXb5OrBOBBBAAAEEEEBgrgAB1lwi3oAAAggggMDmC5R791cBVnn4bJ1ZJVVNmXa4JhTZu6rpuVPNToRxiJWGSN1qqXhoe1qhFLfYdQe8d49vfzOrPdC9Hp4nbePrVkmF7Y6RfifI6kC1SY6dFRV/OHOoxVsK7TvTIKuvGsu9Nzyd+0s65H3+ToW563PHbcxtYHfKSKfb8xVv/n0V3/UqmYsPbv7DyxERQAABBBBAAIEtECDA2gJ0TokAAggggEC5Z58LsI6cqzDqOqS51Vg2FCnHY+mWc1JRdOZg9bX8RYFHVdAUBjdxSOKrsXyVVLcFMVhxXfmVHn/eToXR+ZvDzW5DbJ6aRUOsqgczrWhr1179KVh/9xpiJ/t6bsD7enYqbN8bfwf6dip0lVsLhFj2cDcZyVZi2UBrWqr4yTeoePWrZa48wRcOAQQQQAABBBDY9gIEWNv+FnIBCCCAAALbUaBcWdXUB1imbg10k6Sqy4kqmtL8wqYut90sM15qLr0Z8l6HMtcaZIWzt/yxekOnIICK2w3ToMstd3Y1lvvMpg149+2I9Yyo+FmZXX0WvjcN8dLKqWpoe09bYTzgvQ2k2oHw7kx9IdasgMyvsbpHI7l2QluNZX/WJhq99ldUvPpHJEKs7fivCdaMAAIIIIAAAoEAARaPAwIIIIAAAlshsLxH08/+apVHb67OPo23BayCrP4Qy8jcdFLl/n1RBVEaYrmwyAVC1X/3VEtVoVmdecThkoeJQzUf5oRzrOJCps3YqTBcs1vHzAHv7WVmSq7qi9vk2Vi50GnWIHa7cWD740LLNMTKHdN/Zt6Q9+peF9LotDTxIdZkovFrXivzH/+TNLWTu/hBAAEEEEAAAQS2pwAB1va8b6waAQQQQGCbC5RLK5o898Uyx2+JriQMsjohVhDSmCOHVR4/Wn22aflLApJ0wHv4XhcIBXHK3JZCd/J0p8LFB7zPDqTmtym6tXZCrPai3Buaa8q13RnXXtd5Ka3Eig4UO6Xnq9sK00P2hU1pNZZdzHoHvFcO89oKzxrJ70748GMaffcPqvj1X9vm3xqWjwACCCCAAAK7WYAAazfffa4dAQQQQGDrBJaWtfbcF6s85gKscDi4a0ULQpW0GstmMKt7VZ7zU7vDlrtu9VP/ToXddsVFZmP58Cs/4N2FP7kWxDBh6msR3Nwgq2d2lD35Qi2FM4KsTsVcd8B7X+tfVSiVLM0GUjYcrALB+se9L38Nc6uxxlJxk9H0RH2wT17U6BWvUfEWQqyt+9JzZgQQQAABBBC4FgECrGvR47MIIIAAAghsVMAGWM+xAdZ5X0LVCbLiaiwXpviqqaIwKm+/NagOSiucwiDLBUr9OwXGoVc3RMrPisrOxgoqoGYPSJ8956obji3QUlgRJYFP3NsYx0OdXQrjwCoM4fwH+6rW/OtVgVeyBrfzYDeI6gZZprNLof1k306FfTsgNmu17YTnjSauUE965HGNv/GVMn/0Oxt9avkcAggggAACCCCwZQIEWFtGz4kRQAABBHa1wHgpqsDywYvLOvwodxc6+XaxzoD3W8/JLLlB7n1D28Pf+3znmge8N3lMPXzejtCKWhD9nQ1Dp26117p2KuwEY+4c2ZZCf6HRMnpaCuu5UfGzGL/3eu5UaM9kjx/W2+VmY/WFWHbdfQFZc/m3Gk2PuAzN/MlHNXrpq2Q+cNeu/vpx8QgggAACCCCw/QQIsLbfPWPFCCCAAAI7QKAcL2ny3BfVLYTRMKrq6lywUYc+dSDj28uaIOvsKWl1r3u/f29PBVQ4zN3PbJ8fejnovrbCqEKpbn/rrZzyF2WryJo/t39IC6du6E6F/uSdtsJrD7LCI/hdCt19jI+9yE6FfS2F/rlwA+EzQd2SVN5spMP1/fyff6bRN367zIV7d8A3iUtAAAEEEEAAgd0iQIC1W+4014kAAgggMCiBcjSuhriXzRD3bohlFxzOQEoHvOvEMenwgWZuUhxidVsK7fF8kBXPxUqDpG611CIhVralMAiu+udi5YOs9YZY7vrSFsLQNXwE0qCnb8B7HAql1VitaR0OJecfZWZYXetOhbOCrHZXw/j6ypFU3ClN99S/v+v9Gv/dfypz5fKgvhcsBgEEEEAAAQQQ6BMgwOLZQAABBBBAYAsEqgDLzsCyAVZQNdUsJRziHrQU2tebIOvwQRXHj0XDv3MVUG1hTjwXq4pm6nOHFVphSLPIToVxRuN3Kmz74nJtjHXc053LFedF8TD7uW2K7qhbvlNhJrRKgywfNM2vxnI3aL07FeaOa5al8jajctX2HU5U/JfXa/TDPyI98fgWfAM4JQIIIIAAAgggsD4BAqz1efFuBBBAAAEENkUgCrD8EXMtYEEY0qnG2rcqc/qkm20kU4UczaF6WwpdQpRvH+xWaMXvrWOnKEgKpjclQZw9x/zZWOl63N830lJYfTIwWCzIyrTc+QMt1FLo1ut/+gI//450V8G+aixXZRU+aq71MrzH/sy5nQp72xX3S7rFSMuSLj2h4gd/VsXP/cSmPNMcBAEEEEAAAQQQuJ4CBFjXU5djI4AAAggg0CPQBFjHwgqs+s1pkJWkOU1gsXePytOnpLFLWtIQy+UwfWFV2iaY7lSYhkj9OxWmQVFawdXd1bANffqqvZxE/06F84/pjrDxEKtOjzZ5p8K+9r9r3akw16porz+7U+HBUnpSUeVuNnBb+kffJ/2PN0qln6bF1xYBBBBAAAEEEBieAAHW8O4JK0IAAQQQ2A0CdhfCz/qqeIh7WHEzoxrLvWRklpdV2gqs5XG1U6Hbza5tOfOMcYiVBkP5gGtzBrzXIVmdV/UOeM9UbrWPwHqrsdLZXwuEWE2elpmL5V+bUY0VDbOvF95XieWvK91VsK2Y6laELVqN1bdTYVu5FVSKHZXMWSONJT1wQcU3v0zFH7+LEGs3/LuHa0QAAQQQQGCbChBgbdMbx7IRQAABBLa5QBVg2V0IzwcX0s6Nqn6Zm41Vh1fV60vjqoXQrKxU7WW+2mjWDKv8PKqwGisOgDY1yKqvZ5EgKwyAPMQibYXtDocbCLL6vP22jfb1Tr7U30Jpb9GsIKs6XDLfLBc2+UfBBZRNLLnulkL7yWanQnug40Y6YxdRSu/4E42+5V/KXHhom3+xWD4CCCCAAAII7FQBAqydeme5LgQQQACBYQssLWvy7K9SefTmpM0tCbGyQZZ7jykKNwNrdW9zrX7Au6/G8pU9TewRzcYKQ558S2EbwnTfOyugiXcQDEKX3hDLXeh6dip0YZVfV5ws9c/46lY4RYOzekOs+kbYSqzMIaJoKamei8O4eC6YPep6diq0c7Hi07vZZ2nzX19LYRSQ2WPdbFQeq+/PL79D41d8m3T1yrC/O6wOAQQQQAABBHalAAHWrrztXDQCCCCAwFYLlEsrmj77hVWA5YKgTPta+KskFKk+ZD9z8rh0YH9UydPsKOjDonpouw857Mdsy2FY4dUXHPlqqfmVW040rq4K64Xa4Mef211SHZzV+VAdY0VrS6uxQoowxOqcvzlm3VgZeHa8U/9Z1Vj2uNkg69qqsXID3qtnI5OYxUFWO8A/DLLsanID3u0xfehlRkalHep+qL5/P/bLGv34j0iXH9vqrwjnRwABBBBAAAEEIgECLB4IBBBAAAEEtkCgXN6j6V96oXTkbLQrYBysNAlUu8I0yDp+VDpcpw9JYGGrscJcZvZOhWGFlUt+clVMi7QUdges54Mdf6y+nQrT2VKdIGtGIDX/mI50sSArV3JlNhRiuXMGtzMJznKhU3YQe50HpjsVptVY9njVfzoBaRtiVTsS3mqkfUa69JhGL/9+mTf/ZhWd8YMAAggggAACCAxFgABrKHeCdSCAAAII7C6Blb2a/qW/pfKwDbBcYOTDjcVCLPcZc/igdOxoFMSEVTd+NpbPL9a7U2Gu8qovxJoVzqxnp8JFq71ys7Hi1sVcW2Ea1C0w5D1X/RbcM3V2Kkya/JJqrnZOV33nFwix7DtzOxW6wCv86ri/tKGXe61vwHvzXhte2RDLhlkf+qRGX//NMh//yO76TnK1CCCAAAIIIDBoAQKsQd8eFocAAgggsFMFyj37NP3Mr5QO2yna/mdOiOUyq/jt+/fJnDxZ/T5sCwyrbqLB5nXnoH1vWgnUXxnUrcbqr4ZKjlutuV1072ys+tp6B7w3194ahRBhBjSzrTAIk6LPZCqUquPHJWz5AVh+unqnUCuoPEvWb3Huul0AACAASURBVP8aeafnyoROVRiZbTd1j0UYZPn7m9ZQ9QVZ1XD3Q1J5S6EqkPuDD2j0bd8h8+DHd+pXkOtCAAEEEEAAgW0mQIC1zW4Yy0UAAQQQ2BkC5d79VYBVHjxdZyRpMuUCjrnVWHtXpDM3RQPQo5AoGIxeHa/+e12HVAciQRRk8q2DYYVYWPm0aLXU/LZC4xrWbMCWhEnNTK8mT8qHWGkGFDvk5m3FLZYuVMq0C3ZCrDRJ9AuvZ2N1HtG0hTJXGeY+lF67DyLDT1zPnQonpySdtXV6Rvrl39T4Fa9iqPvO+FcOV4EAAggggMC2FyDA2va3kAtAAAEEENiOAuXqQU0+48ulg6eb5cfhRRzSdIIsn2gsjaXz5+pjtO1xaStdGIDM2qnQdcuF5w5b7vp+76uJ+t5bhzPhsYM/u3N6hjZA663Gyrw3OENUNNXXUrieeVp1stQ+ZsH5u8/eArOxmusNK9OCw2dCtHRXQb+7pKuwigOxdMC7fUdup8JsNdZImtidCY9I5tJlFd/zahVveoNUMg9rO/57hjUjgAACCCCwkwQIsHbS3eRaEEAAAQS2jUC577Amn/FlKvef7FbdRAFGG+hkdyosjMxt56uKmaoNLAg0qt0Gg2PZQMi/xf7eRhLhbCxXoVUfIWr7cyFJGzTFVVr+lPb1RaqlencqjHIYd44oUEuCn76dE9czGytfQeYMNl6NVcNW5VPpI5lWY8UB1HoHvMfB1OwgKw692iels1PhirRWDXWXzIfvU/F/f6eKD79v23y3WCgCCCCAAAII7EwBAqydeV+5KgQQQACBoQvsP6LJs75M0/0nmpWGwU5317i+IMvI3HJWGo99xFQHWflqLHuyMLAIdyq0EVUYYlXRykLVWHXAVecn3RDLvd4XzuQHvLefCUMsFyx5srAFMD6+j2dmzbmaX+HVE2Qt1FJYB1OdAe9xYJXutOivrNmh0d2E6GlOq7Hsi307FdrXRkkwuEg1VrkiTe80KseS/uxjGn/N35W5enno3yrWhwACCCCAAAI7WIAAawffXC4NAQQQQGC4AuWBY5o+60tVrh7rVEmFq07bCn2wEYY+xZnTmu7ZU+UcVQiVrYSKK4rSECvMSdKdCu0a4p3z+oKj9veLhkyzq7HiFrtu4BQHZ/GcrlzI1Q2k+kKs0CMdCl8dJW3zi/sgg1tYX8NCOxUu3lJo35lWTrXBVBx4ufdGT1X1l3k7FU6OSeU5Uw11L37iVzX64R+Srjwx3C8VK0MAAQQQQACBHS1AgLWjby8XhwACCCAwVIHy0AlNPv1Lpb1HmiX2zWvqm43VvP/4MZkD+6tQxbcF5oKsakB60BpXdbj5Cqvw9z0zpqogKwlC8m181ynIqlsc51dOuUXOmnPlXg/b+dLwqK1g8zdobkuhy9MyfYO+FzI35P3aWgrDttDqmup5V2nvoj9LulNh23bqrtI/E9X7C2lyxqi0RYIPP6riZf9Oo99+81C/UqwLAQQQQAABBHa4AAHWDr/BXB4CCCCAwDAFysOnNP30L1W551C0wPWEWD6kKY8cUnHEBWHpgHb3O3+KMFiqA5pk57twNpafmNUJOa5hp8K0ZW6RtsI2E7rOOxV25n65SGdWG2Jz8zpthXEVVBMPVeVQuWcyDbLy1VjVipLqr9ww9llBVlqN1b63XZdvU7QthJOnuSosfeDjWvrqr5Wm02F+qVgVAggggAACCOxoAQKsHX17uTgEEEAAgaEKlEfOaPJpf1Pac7CzxL4Qqxte1JVG+/dJp060A9rr6qL8gPZuiOWP6yOT5vz1L+JqLt891x3k7s4XVj+1VUz5YendSqmousqXjEUde7NmabXnv+ED3rMthe162ptco9oQq5Nxbbwayx4/DbLaoe3dMC3dqXDWgPfpqjS93UhLUvG6d2j0yu+Unnh0qF8t1oUAAggggAACO1SAAGuH3lguCwEEEEBg2ALlsXNae+aXSMuu9S/NP+zqFw2yyj17pDOnqwsOWwL9McIgaz3VWGE1l9N0rXDpToXh0Ha3Bvfe3BysDQVZUaufv6/t8d3p6jCsyYziOV3OInwm4hbBdM7V/Hlb7lidtsL1BFnZEKu5gPp+xn9PryOtxqoKvJI1rGc2lq2tiqriPNnxQtNzdiK8VHz3azT6+Z8b9heM1SGAAAIIIIDAjhMgwNpxt5QLQgABBBDYDgLT4+c1sQHW0qpbbh06pPlHd4e+7tym6Xik4uabq8PYsMLPMarCjkw1ln+fLwGy54yGwncCkDYMSge8u6WHQ95n7QyYzsYKQ6Q51VjJmtJqr3zg5MKfzajGaoOjOPjKhljB/XT3tvmvzKNZt+d1Xrm2aqz17FQY71Lo1poOeLfBVXlbIR2SzIc+qdG3fKfMh/5kO3zVWCMCCCCAAAII7BABAqwdciO5DAQQQACB7SVQnrhVk2f+DZXjve3Ce0KsNCQJwxr3ZyPder4JSnyIVVV2BVVCswa8+5CnL8iqft+0FLqQI5yNFQ94T0OebjXWYrsaduc9xVVpbTDkq4bmV051g7J5c67mD42vq9I61VdJ615vkGXcXKxNbim85mqsoNquekj3SuXthbQiFa9/m0bf8VKpZB7W9vo3D6tFAAEEEEBg+woQYG3fe8fKEUAAAQS2sUB58nZNnvHXVY6WqwqhMkwvNhBk6fzN0mjUtu/VrWDhLnXNgPYm94nnVfl8JQqJMjsVRrO10paz3gHv7qRpW2G+pTB97/qCrLStLmxx7M7pCh+i2QPbFwqycr2g2bbCNK2qA8KFBry3wZ0LN8MMND6ur8YLf3stOxWW+yU9pZDW1jR6+Y+reP3PbONvIUtHAAEEEEAAge0kQIC1ne4Wa0UAAQQQ2DEC5ek7NHnaC1SOlqpr6oRY9S8Xno119oy0vFy1DLpd5lxk4aukwrlIdraVf0s1oD2qtLn2nQqbOVxNauKPGQdm/ma6FsbmbzNa/uIgq1uNFQdffYGT964CtTgL6uw66AKibttmHBwtslNhW8HWZpWdkqtmzlh3p8IkmEqquWaFWHatuZ0K2zbB+NjxgPfaNHiWyrNGOmWktYnGX/0tMh965475XnIhCCCAAAIIIDBcAQKs4d4bVoYAAgggsIMFpjd9iqZP+2uSKZqApGnjS6qxFgqxbjots7JSHatqFQyHqc+qxmraAsMgywUyucHmPuoIdyqs47AoCJs1yP1G7lTYV43V5j/5EKsNudxDuN4QK/1MdZDwRkaZUU81VnUT0y9BGKZ10reZ1Vg+xAwP2Q5t74ZpfTsValkqn1SoXJXMb7xNo5e/SubSxR38beXSEEAAAQQQQGAIAgRYQ7gLrAEBBBBAYNcJTM98qqZPe76tjWmu3YYkYcaRthXODLJOnVSxWg+Er6plXKwUhWJ1KOWDjHTAu1tIbl5VPP8qDIXCnQqraq6elrb5bXz5Ae9t7hNWb9UrDUDWX43lrrV/wHsbDrWGcQg1f95WN/xad5B1HXYqTKux/D1zu0t2WxBdRZ//cc/H9IhReZuRHrui0ff+BxVv+Pld9x3mghFAAAEEEEDgxgoQYN1Yb86GAAIIIIBAJTC9+dM0vfPz67wgHnwUBlmLzMaq3n/iuMp9+6pWsfCnCrKa/KkdvB6+r6naqt4Xth7G1T59A97DEKuOhToD3u3v57cJpq14aYgUhmvuKuMQKa1Oaj9vz71Y4JSeI16Tu475LYVube2dSHeTrBffviFpCYy/Jjdmp0LbbupCrNbN/y3eqdBd2Nq5upXwwiUtveCF0pXLfLsRQAABBBBAAIHrJkCAdd1oOTACCCCAAAL9AuWTnq3pk55XpTqlKeu0o0081h1iHT8mHTjQnDCssvIJVhC7VAGTC7Z8ZVPTS1jHF2E1lXvNzaoKj9KGQmk1l32XD8aaSCQa8J4OZu9WftnP5XYXjKvE6muol1UFfkFwFA1t94FXFCy1gc28aqy+QGr+0Hh3jmsOsTZ5p0JXoeefgPZZdUFWt6XQ/iaqxjJGk6cYlfuNije/S8W/+g6Zxx/ha48AAggggAACCFwXAQKs68LKQRFAAAEEEJghYP+H/5OfJ93yma5lq05pyqKZXhUFHn0D3n2oVP3zyBHp4EE3h8rvYpjZQbANINpKq+xOhU2eFQdZvlBo8SCrrfrKB1lxG18YWvkWv3zlVnXVvTOf0rAo3X1wfujUbVl06+8f2D7/mNcaZG1sp8J0UH26ThdMxYHVrJ0KwxBreshoeotN1tZUvOLVGv3K6/jqI4AAAggggAAC10WAAOu6sHJQBBBAAAEE5gRYn/L5Km96potE7P/+r1IaozTEcoFOUAHVM+C9PHRIOnS4qpDpC7H8sXI7Ffa1HtaRTTCgPR/g+Gqe6hz1mn0mErcl1jFQVI3VXl/fgPdcsOUDpXAHvmq9M2djxcFU306FUTWWQ6h/wrW293h2W2H3M4tVY0Unjs5frSfuPI3mV4Xr96tc706FfSGWPZ4f8F6953yh8oRR8e57NPrWl0ofv4evPwIIIIAAAgggsOkCBFibTsoBEUAAAQQQmCNgK7Ce/nyVJ+5sQomwQsj26lVthemA9zrP6LR32TawgwdU2iosXyFUl0qFLXg+g8nuIFhnaOlsrGqBUauhn5MUDl2vAxqXHjVZTzxbq25LC+YszdupMKy8qg/dO0fLvt4X0IS7KfoKsrB6y/2uDraazKi+Du/YyZJmh1KLzNtKd3l01knrXrvg5KFaTzVWe8xZYZ8LpoJ7WZ+xb6fCphJrWZreUajcI5kff53Gr/53/CsAAQQQQAABBBDYdAECrE0n5YAIIIAAAgjMC7AKTT7tb6g8clvwRhdIVPlB6UprXFFWJsiq84goyDqwXzp2LDqeq8aK2+zCgCreqbCtTHIVWm3o4QfBuwynbT30ZUmd2VjJXKXrvVNhFP717YKYhEO5eVfzQ6fugPcg73L3LJjBlW8prBWDnGrj1Vh14OWK97oBV/g0JEHYvCBrlGkprCr7qmPGJ6uCrP3S5I5CeuKKxv/oe2Tuegv/GkAAAQQQQAABBDZVgABrUzk5GAIIIIAAAgsImEKTz/wKlQfOZEOHKjuogyw34N2+re0Xy7YU7luVjh9PKnhc3GSPNw0GF+XaBcPZWNWA90wrXjWhq2enQp93zNqpMMxQ7MrsefyPD3tcsJJWN80e8B7PpUrmYiVD3eNWv+bs2WHxfbsmVkFVlOH0z8WqriZqaWzPmRZbdYKs9VRjbWDAe3odi8zGmjTX3a0UK88b6biRPnSPxv/H18s8dmmBLwNvQQABBBBAAAEEFhMgwFrMiXchgAACCCCweQI2wHr2i1WuHnfHzFXPNJvp1YFME+yE7WD1n+0/VoMAKwo+gla4OQPefdhVBRv1gPQwyAp3FUyHovdWY2UGyYezsdy8rDjI6hvaHu8wGLYwzgu9khDJpUrNSbvXEu+uGM6/6p+N5dYQ0ncHyYf3LrfmusKpE1x1w6LMQ+MepA0EWbNmY/kzR62ldu5VLshalcrbC8msafRDP6Xip/+LNFnbvO8NR0IAAQQQQACBXS1AgLWrbz8XjwACCCCwJQKm0Npzv1ZaPugHTOXzCBuIVIVXbjK7G/Dugw+XIDTVWKt7VZ44EVdgpUFWHYqF1VhRQFUfL63GcnlPO9tqdktgdzaW/XwagNh1h0FWfzVWGgzF1Vg+i+qrllrfgPc2VLKf66ucavMvfw/CpygOscJ75B39u3MzvtrXOqlmcm/btcbPcP25Ufpkx8eb1XaZrtOfae5OhfYxPWmkc0b68Cc0/iffJHPvx7fkK8ZJEUAAAQQQQGDnCRBg7bx7yhUhgAACCAxdoBhp7XP+Yb1KHyzU1TOdtdftdDN2KqxCrD17pBPHpcJWwEQlTcER3e9n7VTodxD076uGnWcGvIchlgs4XLDkZyTlWgpzYZlrSXRHWLwaKwyO2nbD/kAoaStM5zvNqMbKz7EKWxzzIZYLgVr6vmosN8jdC8bVeBufjeV7QGfPxkpDLLuKWdVYLkttg8zq/U01VnCxdxqV+43Ma39b4+//Lqn0wevQv5isDwEEEEAAAQSGLECANeS7w9oQQAABBHakQFmMNGkCrCbBcNfaJjrBtSchVp0VuLChno21Z4+rwKoCrPqjM4KsZs5WHTy5U8c7CIYhjB8Yb8+ZGwQfttlVBWPuYpoQp6kUS0KQeKdCF2JVwUh9DT5kmT+Pal6Q1Q2aogqr4GLrPMmFas064gqm7qyueu3R28Kgy19X+4YNz8YK53plztc+OBvbqTD0989F+EW09z88rb9nrorOSPuNyicZmXJNxT9+mYp3vnVHfo+5KAQQQAABBBC4sQIEWDfWm7MhgAACCCCg6d4Dmjz761zEkw0gZlRjhTsVVp2F9S6FKytBgNWUNS1YjRUHNeGS0p0Kc9VY9jrSnQrTGUn2OuMB6nFYVg2Ir/OPqpprTojV2uWrsdoQZna1lDtnfYxoB8HwQc0HWfMHztcXNKMaKx9iuc/NquDqPDzNTYuDNncVmz8byx41t1Nhdd/tvb65kE4Y6f13a/T3v0nFpYf45iOAAAIIIIAAAtckQIB1TXx8GAEEEEAAgfULTI6c0fSZX9F8sDfEqsOA+AwunGqqhMrChVi2Auv4CWlUDz8KK7kWaCmsQqienQrjEMsFIulOhb71MJxrVR2zLWeqApm0La5TzeUrnqKWxDqG8UFTckxfcpar0lokZIpDpDgAioa2N+7texadvTUrkJrfptg+ATN3KrwOIZY988y2wqQay9/zcq9xA93Lqxr9m/+o4nW/IE0n6/+y8AkEEEAAAQQQQKAWIMDiUUAAAQQQQOAGC0xPP0XTp3xxdda4KilcSNRDl92pMGoDXLEB1nEXYKWB1SIthXWVUDXHqv58lZ811Unu92EuFu4K2Lyvah8Mq4fyFVLRdc/bqbBpSWyDrPkthS5oa2dxub9X/x0EPX3hTHdmVfv5dMB7HPLE154Okd+MIGux2Vi5Sqz6GjoD3ttrS338Ezlvp8LsgPfTRuW5Qua9d2v8Dd8sPfTgDf6mcToEEEAAAQQQ2EkCBFg76W5yLQgggAAC20Jgcuunqzz/vGat/SGWDxaCodydK3Q7FZbLKyqPn5TGQQWWf29bFjWjpbANfGz00VeN5Sut0p0KXbDVhib9OxXGIVJ47Wk1Vhim2GOnOxXG4VBfcJSGWHGwFc65arnCCqv2z+nQ81k7FYYhWRxwped3Z03bK+PgqDbzj0M1PD1oE03vc/P34APRc1Nf04ydCtP1p9eQVo35M0VBlpGmn1JouiqZ73+dxq/9wW3x/WSRCCCAAAIIIDBMAQKsYd4XVoUAAgggsIMFJnd+rqYnn95UN7XhQFohFAYQdehQz2yPeYy0slwHWGP3kiufat/WF2JV7w2rdYIgyASzn8IqqeBYPrTKzcZqQpkg3Jq1U6GfR+VX497bVn350Cbc084GKfPb+FrXxSq32sozd29ybYXt0Pb5LYBhFVqULvXOueoOmHc3de5crPR+Bu2WnWemekbWt1NhWlGWXrsPsLzY9JDR9EmFtHZF4xf+A5m/uHsHf7O5NAQQQAABBBC4ngIEWNdTl2MjgAACCCCQEZg8/QWaHrmteaVvBtO6ZmNVFVgnpCUbYIXB1caDLFtllbYU2gSlDZjCwC3ehS+8Jj9DyxUNxQPa+3YqDFsX7TmrIe/Zz7vLrY4btAbm2wQ3L8hqc6FZA97bANJXb1XhW5SHdUPL2dVYCwZZUXgZh2bZIKsTjOZDO//ZRYKs6giFNLm1UHnUqPj131fxHS+TufoE/15AAAEEEEAAAQTWLUCAtW4yPoAAAggggMC1Caz95X9YHaA/qEjb1sLzBSUzYeiwtCwdP6Fyacm9Oay8Sauxqtev406F9cyqsJ0sN+Q93KmwnVXVXvu8lsK2miuY1ZVUHIVtf+lA9zDw8iTdgfD91VjzZmm1YVUd+gVrS9sf2/O727feECv9jHsG4hCqDc6S3/t2xL7qvvrxS1so3TnbZzPXVljtVHjAaHJ7ofLiJY3+xatUvOOt1/YF4tMIIIAAAgggsCsFCLB25W3nohFAAAEEtlLg6vP+QZ0v2OqdMKxq/5xvW/OrDkIs/0cfYI3HbXCRhlhpqLGOEMsNjA+rnKRZOwiG4UZuEHy1lDpRmbVTof1sGLdU1Vz1L3zVVdpS2J67v0Js9oB397n1DXh3V1TNxQqc44qrWQPeF6/Eyl+fezYWG/Du1tr9MVXFVPelXKAaPqvtkcJrb55WYzS9rZCOGZnX/67G3/090pXLW/kV5NwIIIAAAgggsA0FCLC24U1jyQgggAAC21hgNNLV5/y96ALcHKdrCLLsR5eXVR47LvkKLB+iNIdNhn6n87H8+3Jzs6rVuiDJvhwOeHe/qwOfOkBpc7E48Kqus15X2BJofxVWY/ml9w14z1Vz9Vdj1WsPHPKVVz6wSkKvtIgp8MkP32/Dr7g1tIlznGZ2PW2w1Dfrav68LXeexYKsXIhVL26haqx2ve6c7WPdqcZalspPHctcvqzin3yninf/wTb+ErN0BBBAAAEEENgKAQKsrVDnnAgggAACu1ag3HNAa5/xNZ3rT0MsF3LkK7Kys7GW7BD3OsDKhVC5IKvvfTNCLB++2MP17VTodyB0OxW6E9uAKqymsgGLr5zqzrZqQ6Q0iJlX9dW/U2E8AD3efdC91hdspTsVdkOktEIpH2K1IU8ckqXhj3s4Zg9s74Zjsyu4mgduPbOxOrsUxoFVGML5488MsW4yKs+OpHfdo6W//39J5XTX/nuAC0cAAQQQQACB9QsQYK3fjE8ggAACCCCwYYHpodMqn/ZlQcVRe6imkmmBaqxOiLW0pPLYCWm5noHlkyZ/+LBd0M88yr3HZxSd+Ulhtc5iOxWmVVa+SioMsnzYFYZYdnku3GrP44Ms36LmV5PuVOjDpjYca8OkbjAUD373HPOHwddHmhsw5ncqDGdxtbcgXWc3xLK/We9srGwlVue++5uePtZ11d41DHiPwr4VSU8eqdxrVPyLf6vRb/zyhr9HfBABBBBAAAEEdp8AAdbuu+dcMQIIIIDAFgpMTzxJ0yd/cTNkfdZubou0FTYZig+wxktVpVNz3N5qrDoC8n2BoUk7ZCoeBJ6GWjLK7VSY20HQV2O59r94ftbslsC4sigMstazU2EbDjaJXt3GFwZHrYn906YGWf7QUejVBkdtsVq8m6OvYEvpNyXIWrQay7/vWoMse5E3FSpvMjLv/FON/vnLZC58Ygu/jZwaAQQQQAABBLaTAAHWdrpbrBUBBBBAYNsLTM8+Q5Pzz6uuw1cihW1vTbzi50rV//SVR/71zvylKsA6Lo2Xm2PbP1QhzLyWQp+jpO+Liq6iAUfBfXAhlv2Z1VIYL8MFbDa46msJdEsy0Wysqs3PwTXn79upsBrw3jOXKd2NsNl5sMmTwsqv5o5Ec6sa2/rl+e2ebajYNxurfy5Ws7DoVq43xHJrDm9q+myEX6/kfbYsLjvgvV1be2viz0ZthXuNyjtH0tUrGr38+1X8xpu3/XeaC0AAAQQQQACBGyNAgHVjnDkLAggggAACLuS55bM0OfNp0VZv3eogh+WyhlkD3oPwYGlJ5thxlc0Qdx/C1MFJX3ARzKlqprRHOUYw/H3GbCwfUFWzrYJqozDK8DsI1jVVUZVY0xIYDIKvFap8ybcUepc0vMm1FDqdNiyLTf1FhhVe3aHz/l3d0MvfmxarN8QKbtO8nQqrUfkNWryeXDVWb4jVnDOuYLO/nhliJWvtfm2vfadCnSmks4XM775b43/+LVWYxQ8CCCCAAAIIIDBPgABrnhCvI4AAAgggsIkCkzu+UNNjt9fpVFypYquJwt30mogl2aXQBTHtZ6tAYmlJxdE2wIrb34I2uVyQFQQmTXjSaS/LBFmZlkIfZPVVY9m1p0FWNeA9c035nQrb664qshaoxvJBVjrg3YU5bZCVr4BKh6nXR+sNmRYZvt/ej/nVWN2gLB3wnoZSi+1+uGiQlVZi1QmX/fWMlsLOjLaaufIeSeapI5WjiUZf/yoVf/TfNvEbxqEQQAABBBBAYKcKEGDt1DvLdSGAAAIIDE+gGGntjr+q8sh5t7bmf+XHLXG5EMuHVn0VN1palo4dlxmPq0OHlVAu8AhCrOjc9TrCEKvOKHpbD2e1oVU1T+7SwhDLHtK3+/mZV771cN5OhfZY7qiuEstXQ/niscgkCMJys7XSds1oXli081/iVb+WD7y6IVNfNVZLnw+x3L3zN6Ctwmt/Hz7W/TsVdndKTI/pjpMd8p4LLzvfpvqB2ehOhacK6eZCxRvfp9F3fP3wvqusCAEEEEAAAQQGJ0CANbhbwoIQQAABBHaqQLm8qskdX6Ry/ynXQuhDoyTI8tVIfbOxurvY2QosH2DZRCEMX3wbmm8lCwe8t6FGZe6Sovqn/oNPo5pf9/y+TWaaz1eXFVRJ+VymCaNsZVkVbLXrCGd2+aX071TorykOY8JqLjczq/6v5vLC2Vru5bJN06LdD33LnzuDC4ziwfthiJS2/M2oxgrW5dfYW40VXkMy16uJ9oJCqUXaCsOM6vrsVNje0/b2toss97gdCbVqNPp7/1zFu96xU7/2XBcCCCCAAAIIbJIAAdYmQXIYBBBAAAEE5gmUew9p7Y4vkvYenREStf8jv2/Ie1tNFaQWy8vS0bYCK664igMtlzVtwk6FnQAuGQpehz6zdiq0b6mqxYIgK7dToX2fbz2so6Sg3TJfiZQGWfY8PrjpG/IeVlg5pzaISSujFg2yutVQ4T1Oj5+GXkEQ1FmLf+LiIM+bhs9jvGOjF4xGsS1YjdWupz1+nQx2Wgrj94aWVbB5ayGdKGTe9sca/cuXyVy6MO8rxOsIIIAAAgggsIsFCLB28c3n0hFAAAEEbqxAuf+E1u74Qmn5QHDiXEXT/BDL45uyqgAAIABJREFUhStBdVUdYGk0doVUSZufr7KJQ5gg2MoNaA8Ck/xsrJ4B723yU1+n26mwao2cMbOqLfZq1zVrp0JfyeUq1doQp2/Au31Xrpor2iUvarUMg6EwBKwDoPo29bX8uSApiHn8sROf3Oyt+bOxega8B5lRuGNjvqUwvg633mDBfumdlsI4mAqusGenwviYTZC1Vyo/dSw9/JhG3/69Kv7gbTf2C8nZEEAAAQQQQGBbCRBgbavbxWIRQAABBLazQHnojNae/IVSsVy364X/w35+S2E7/ylWqIKslRWZI8el0agJIfqCrN4B72nw1JYrtaU6fVVXc6ux2tlY0U6FPTOr6uioqbKaV03VtlvOD7KaYKfJDvM7FbYBVF+Q1YaP9k+LzK4KdxlMw6I0yHK5XB2cRZnRrLbF2dVYNyTI8q2onSwsrTyTyttH0tFCo1/8HRXf+/Lt/PVm7QgggAACCCBwnQUIsK4zMIdHAAEEEEDAC0yP3KrJ7V/QDm93CVMClAZZ7evNEHRbyZR+amVP1UJoAyz/E7XMBeeJB7y7ZCRqOeytxqpTlFlhVVtG5ZYRXZ+PpbpD3v212Y/4KqlwyHu6U6Ef0O5PsUg1ln1vep6wpdCdu4XNtWHmqqXCXQG7IZYzy1VihffJ/3lWiGXfM3/XxOZIEX03LGsvNL9md5xORVb6vAbVb/EjaeZWY1WHGknls5aky2saf8lLZB7+JP/CQAABBBBAAAEEsgIEWDwYCCCAAAII3CCByemna3rus9zZ0hAoDXo6IVEcZHV2KqwCrGNSMYraB/tCLB9OpNVY7dDzJHzyVTV+8esJsarrjavNfM4V7lSYq7JKQyx3KB9XtfOz3PLcLK1cyNPXujhvp8LO7o3JToW5mVmLhkx9OxWGIZYPrfpaClvaulIrykPj2WBpIDX/mD0hVno/Z4VY9r2dnQqT0PaWQjpVqPilP9Toe79NKtN49gZ9QTkNAggggAACCAxagABr0LeHxSGAAAII7CSBya2frenxp8aXNK9iqXrdJ15tBZPLkYLKnpU9MrYCq/qdbyMLq2yCAeZRNZY7djobqwlhOhU3yU6F6wmyMtVm1a/SnQr9fK9ayl5PuFPhItVYaZDlN31sbJLWxWoNdThll2T/3D8by5n1VWP5fGe7B1lhLnVNOxV6qM6Q9/o5PWBU2h0Ji6nGL/pGmXvet5O+9lwLAggggAACCGySAAHWJkFyGAQQQAABBOYJTO58vqYHzuXf5oOsTjVLnRBFQVfYimdc21sQYNkT9IVYPlxpBmkH7w1DLPe+GTsVNtlYbn1BxdWsgMulcG7ofF05lQ2Yol0K68Ctfn+u9TBsC2wr1drAqW/Iu3uvX49beNhS2DFJQizn7taXC7H87/zr62srdNVlVRCXBIGLzN4K1+QfwMihXVxPm6L71MaHvM/YqXBkJBtgHTIav/aXZX7gB+d9lXgdAQQQQAABBHahAAHWLrzpXDICCCCAwNYIrD39y1UuH6qDoaSNKg16MrOjqlyk+X37+aqlbs9eTY8elTFtmUsbYrWhSvi7RXcqzFZj9Q14n1WxlZut1dwKv1NhHNSESnY2VkvQvs+adN7X5GrhgPYwWEr86nVU88HqP+faEl0+FVZntceMg6nw94sOeE+HtrdBZVuF17ZIdlsA43Oms7fmhlidyjx/c+JWxI2HWPVzaB/R5PEvjhWa3j6Sed9HNPrWfyXz8bu35kvKWRFAAAEEEEBgsAIEWIO9NSwMAQQQQGBHCZhCa5/2NSqNGwjUzlaaEWTNHfDeBlNmdVU6fKw6tg2ccvOV8r/LVfTEAU3vgPc6zHEX1K4lDtqiNMj9pTfI6tmpMJx55T/fdDK2AVUz5L4+ZTT/S3WlWrvYahl91Vh+kHw0jyoYnp+bjdVemrunvjIqvNxFqqXWNRsr8Gznl9WBXlAlF1Z7bSzISsOxRQe8B89F84Wub16VRta/HEnmaWOVZqLRd/2Qije9YUd9/bkYBBBAAAEEELh2AQKsazfkCAgggAACCMwVmO47psmdXxKVnvSGWP5/8/tQqG/AexNeGGl1n3ToSLSbYK7Cqi/Ecodqw7R4p8J2l8ImmMmFUGmIlQurFmgptB/zw9vDIe+5HQSDOqqq3c9VaNUBUt3yFrYU2mO7tsB8NZY7d3vUquorW83lbnn/ToVhiOXO54+z3p0KuzsI+sfNhXdVXBXkoIvO3orneHXDvPCh7tup8JqrscIB7yeNdOtYo7d+QMU/+0dzv1O8AQEEEEAAAQR2lwAB1u6631wtAggggMAWCUxPfYqmZ54TzUjqC0CaJTYVKlVJVbLyILSwr+07IB083H40aHNLg6l8sBUHMvZvPpzo7FSYC6HcxQRBSrK+JnNp0qAZlVht4GPfHe1UmFRjtQPe3WfCdke/TN8WGLYE+qHtftnh9do/hyFW+Pl6ZdFsrGpWmHuh/ukf8B6HWO111vrR4Pjw+UjXF84wc6+lAWR+Lf697cO03p0Kg8iw/qO79rSSMFdZmD7DNZr9te98feaStEcav/ifyXzo3Vv0beW0CCCAAAIIIDBEAQKsId4V1oQAAgggsOME1m57nspDT85W7IRBRb6iJRyK3hNkHTgos/9QZ8h2OIh9c4IsX7nUN+A9CCWqu3htQVZTXZTsVBhWWfn2xTDUqaqxMq2HNmzpzraK2+P6dioMWxJzgVM09D6o8Oq+14VGaVtf2K643gHvYTA1ezZWWGUXfs1mz7maP29rgQHv9ePQGYAVBGDm5pHKM4XM296r8T/7hh337wEuCAEEEEAAAQQ2LkCAtXE7PokAAggggMDCAmtP/d9UrhyqW8nC9rI4kHIhSKZSJax6Clv1fNnPwUNVFVauLXFWiBWGZy4ECVrmkpbCNiRpQ6wwOAl67YLgKrgW19/XmoWD4GdW8LgB7/antxor2qmw9p2zU6Ef/d7uNNjdqdAtOQx9XLWVD8GqNXWKj9IZYv6S88Pf+1r+ItvMOtqjtjPI/LG6gVOTHtW3IHwGoyNFtyidEebfmV9zT4jlHrLgvrdrib9ARjpgpDtsX+FE45d8q8yf/8+Fv2O8EQEEEEAAAQR2tgAB1s6+v1wdAggggMAQBIqxrj79RVLh+6QyVUzBEKP1h1iSDh2T9q66gic/AyoIDcJZTZ1KrCRg6NupMNtSWH+2CjSiYC2sGgsCizTE8ucOA7omTwmTIfdnG2SF87n8tfh35nYq9O11/j02gEoHvNv3uN0HuyGWW2K702ET6tQHtK+4Y7qF+0qwMOQJf2//nM6Umv9ef+wgTAvuW0sfhmS5tsKw2uz6hFju+tIQNp7TFbZbRl/RsZGePJIOGhX/8Rc1+g8/Jk0nQ/gWswYEEEAAAQQQ2GIBAqwtvgGcHgEEEEBg5wuU+45p7fYXtJPJ66CkzWm6lTk+NJlfjVUHBYePSyt7ojlUbeVVXDHlA5T8QPe42shnJLn3RqFLHfC4ICtTZeWyoXZQ1KxqrCCYCRKhmqsOkqossHULAyYfYvnuxbL+gw2Z0gHt4anskdNqrHC+U1qNFe5U6EMsN1vL/fQPeK/XHpjkZmO1a+sGTbn7EbMFNsEL0U6FzW26gUFWp9Ku+Ra0/yI4WUhPGsu88880+n9eJnP/x3f+vyS4QgQQQAABBBCYK0CA9f+zdxbwTV1fHP+9pIZ7cfcNNhiMMWQ4wx2KMxwGw4e76xguAzbc3d3d9sdtuLtDaZv3/9ykaZM0be9L3kveS877fPZh0HPPPed3T9rmm3vPjVUiMiAFSAFSgBQgBZxTwJAsCwxpi0buSrHanBL7biw2exSQFbFjyURBhCSBEP39zeQkos2QlN1Y5nmiu6nQXvN32wbvJh/hetmCLEtgYrW5ygZ4SdiNZXmkkM0a/U2FJqBjPP4X7U2FJjhmCbHM7MdSf8s52Ndtbyq0PFJoDbHC18pCB/s7r6Lu0DIvaHS9sayP+llDoZgavEcHvcILKcqmOp4jhdY+OXpjWYJNNtgHQAFfICQUPl37Qzh91rkXII0mBUgBUoAUIAVIAY9QgACWRywjJUEKkAKkACmgZgUMqb5BWIpvrXfkRAOxIgFQpIGx4XdEM3Sbo1lGGgMgWSoIvr4muwh+EXlsy/ZYou0xN2cavEdtRh5dg/fw2OyBLJ7eWFa7d8zgz5Q+X28sE0AyNngPpyzsT/NxvtgavNtCRDPIitjVFB5feGRRbyq0WhorgmfR0D28wbsp1PAnulsNjejSqid6VJAVvrvKDO0sprWCjxHzWR9BjABZVuOsa5Crwbst1bL9u2VNsK+l1wNpddCvOgzd+KFqfnlTbKQAKUAKkAKkACngIgUIYLlIaJqGFCAFSAFSwEsVEASEpfsRhsRZIoiE1W11NiDL8iY9yz5Jpvf74TDCXpP3wNTQ6X3CezHZQCwznIg45mcJx2LqmcTASaStZW8sy3jY/1v2pTITFes8o9llZSyLcAhjuRPHssF7FNhhDX+MDC/8n8wgy/RvkfCGxWduBG+OL8pNheGN4COnM+ttitEcnhUkinY3V8SIGECW9c1/lkcizb24otuhZW1r3evKvB7mV5xtTUXdSRdBr2Jo8B6ugbMgy+4FBZa1ER61nwB84wvhczD0NZpBeP/KS7+BUNqkAClACpACpAApEPE7jS9Kmls1kCqkAClACpACpAApILMCom8AwjIUgxg3Vbhn884hy11KtpNGgiNbiGUGR7a7gYTAtBB1DNJEQq6IH/AWMMjukcJwYmM6ahYJM6wbjVuDrAiXdgCX7bhojxRGTBXu25JEWdMX87m/SKHsNAk3NXiPPLJmCbHMUMfUBysyRwax7B4JDDcx9rayaPAeLpUxjgigZwdime2i3nRogk1Rd63Z193sJ7qbCq39RL0x0VZG275h5q9HhaWmeCJ7ZkXGZys9z7FCyzH2+7rZQCz212y+QDIBuvHroF81Q+ZXJrkjBUgBUoAUIAVIAa0pQDuwtLZiFC8pQAqQAqSAphQQAxLBkKE4DP6JLeKOZgdUNLuxbHfhREINI6Ix3W4YmNryzJkRylgejbNtoB5dbywzsIh+55X1LjAGJuwdIYt6PC08HqtdVpFQJMYG75E0yKRhdE3iw28QZFPY3lRoltbyBsFwlBhxg6AlyLJ706DlTYXmo4c2Nz1azhN5JDHyCGhkg/dwQBSx5tbHBE2AzBoaRQexIm3D5bHQyLYJvVnniHW20dN2TqNvm2OKkTvsIkva0iZqPZjysFx6U8xWBW+9tqyuUuggZvKBcOcx9C07Qvj0TlOvfQqWFCAFSAFSgBQgBeRVgACWvHqSN1KAFCAFSAFSwEoBMW5yhGUsAehZg3UGcayPv5n4gcVRNRuIZf667Y4d8yTG3Tx+fqYm7uE380V8Ldy3+bY847/bHM2L2hsrMhZ7TdtNEML6aJ35n6K/qTBy15kJXEQDoSxgTkT/p2gbwccMsszHBS17Y0Vp8G7lInKnlb1G8JGa2rmp0AbERHfTofmmQnuN2KOCI0uNwwFQuD72IJOjTd7NsUQLnSzWxHa3ly2UsoZltr25LBS0qPEYIVZcAcjhA4gh8Ok5HsKp/fTdhRQgBUgBUoAUIAW8WAECWF68+JQ6KUAKkAKkgPIKGBKmN+7AinxsIZYZTkQHsUxfjwqyzP8GiP5xgITJTEfT9Jb4KvLGPSuIFUGcTLa2EMt2Lp4G77FDLHt52uzAMW7nsojf/P+2O3Us7WLajRUOqKKDWGwm8w2C5t1Y5gbvtjlbNng3jYtcF3Pu0d1UaNY+kh1aQjAbgGlaEYtNZpbHDa17ZtmDXo4cKWQzxnRTobX80R1/jKxwniOFZs3Mo6Leshm+Ijl8ICYR4LN8PYQpswCDQfkXLc1ACpACpAApQAqQAqpUgACWKpeFgiIFSAFSgBTwFAVCU+aDmDx3BCiKzMtBkGW1gyr8TX7c+BDjhx9RNMMd291YRjbEwEn00MgeyDKSlPAhMYEs8+6b6Hpj2fZSMs5lZkAxASrL42v2YFV0u7nChY64pc+iNxb7ktUNguE0JdJ95E2Flo3gmRax3lRoQWZMoYWDyfAjczHBIOveWJGA0pSKfZDF0xvLat1syJFlzpJ2Y5nXLqKgbeBalHki685+vy12VNFmVx37e3I9kN0Hwpn/oB8wBMLLJ57yrYHyIAVIAVKAFCAFSAGJChDAkigYmZMCpAApQAqQAlIUCM1UEmKc1IARKNneFmfedWV9rNDqSKFdUGB9vExIkAQIiGf0H3lToHk3ljWwsnuToR1IZbuLxh7cYGyJ9T6KCrYiFYqyk8lih1XUPC1itd2NZdaBB2JFASGm/ktsqOVuLHuAifemQlN4lnDKFKA5vOh2YzFIw74W3W4sc43EDqYsduBZaWrW3vYIYvQN3iPlihwT3ZFCe7YWqx1e45H/Et1uLFOtRha35bJa7cbSAcJ3fhANodD/2gO6S1ekvPzIlhQgBUgBUoAUIAU8SAECWB60mJQKKUAKkAKkgMoUEICQ7NUBfRzTMUAjMeGDWFFAhhWHsjhSyFwmTgb4sTlMjwmQmLdNIUpvLGODd9sm2hb29hu8m2BD1JsKI2OxVN8K0ljQCTOc8IibCiMktr6p0B6MiWk3VnS9sWyb95v8WoIpexDLZGNvZ5W5pmzXyfz3qP7tN+g3+bGIJfJ/LY67Rs4S5cZMq3oIj9fKh02D94w+QGod9HO2Qzdvospe5BQOKUAKkAKkAClACrhKAQJYrlKa5iEFSAFSgBTwOgVE/4QIzVLJIm+LHk92QFbUhtYWoMoMsOyALCRLBfj4GOcx7wpi/x8BsozH58xsIdKB+aZC4w1y1hTDCrTZ20UTtWeSHZAVsUPL/u4fK0ATvqMpSpwWoCTGmwqtjlbGclMhyzX8iKXlzjKzCtb5mlQ1Ab/Io4fsX+31tmI2ppsGo+7GMqUSuUIm2+huHwxHVRG3SUYSHj6QFQm3Ym3wHh5XxAzhmlse+7R302TksKi7vezeVGgBrmJvGm8qSONaxBOAvL4Q7r+CT1AjQKQ+WF73zZQSJgVIAVKAFCAF2K9RvihpvtGZBCEFSAFSgBQgBUgBGRUwJM+BsOTfmTzagie7u7HCYYlVo6TYIZaQIq3pjb7FjqCINCL6NgmmnViWQCj8rwwmRHdTof3dWPaPmpmBgzVgiQQp9m41NI2xhDMWvZ6iOy4YmWi4tjYALgL2WYkeeQNj+IKw44JMN8vG59HfVBgJsdjw6G4qNPUZM6tvuUMqMhamg2VkliDMdjeWGXpF1SlSM3tH8WK/1TASkBl9G92Fx2tVr5H6xA6dojZ4j3AVnnDsRwpNI6x2sfkIQC5fIIEAfasR0F06KOOrlFyRAqQAKUAKkAKkgFYUIICllZWiOEkBUoAUIAU0p0Bohp9M/a/McMDe7qloemPZ241l1TPKAtIIydMapzDupDKDMQtEYtkXy2hnA7KMQ2whlk3Mtg3ebftXueSmQttdVlwN3i1ojD0wGMtNhdZwyeTL9qZCy+OYlr2xLG8qZP9uu6b2YJkpJdPiRoIw25sKLXdXmWKy1zPLfo8pa8hkxHLGBNifoglkhf89HFMa/x7xaacoQgi3Zf9qtjdDS/OOMpHRQfaPxj/1JiAV/nejDjrW3Mr0dcH8/xEw0wZisbEZfCCm0UNYdxQ+Y4do7nsBBUwKkAKkAClACpACzitAAMt5DckDKUAKkAKkACkQVQGdHiFZqgE6XwuAFbFFysI+EjqZmJEl5bK9qTByN5aRM7C/+voBiVMY/UXZLWUBQ0z2Fru57O3GsndToQ00cgZkRc5vliQyV+udUHbyjHY3VjigsrfryjJ2e+NNqkVuSovhpkLjcUyLk4kM1BiPUVrqbqVxeFx2mpVb7UKyMz4ybOtdX+Y1jjzaZ71TyS7IYrApLAwIM0A0hEEINQCGMIgGEUJYmBFGiQaDiVAZDOFwirEsZm8kWeFwy7JkbXe2mb9mXbtW28yYfjo9jGCL/afXATq96U+9HvDVQ/DzhejrC/j7Aj56635ayXQQs/pCePIUPi26AW+f03cdUoAUIAVIAVKAFPAyBQhgedmCU7qkAClACpACrlHAEJAEYelLAYKpN1U4YYo8xmbDAIwoJMpuLGvAY+EoElb5BwCJklklZQWZbCCWGWRFwC7GCSxIg/l4m90m72b+Zjx2Z52AaU5zmlHjju6mQnvHCq13E0VzpNBEcyxCt+wvZhEbF8QKB1nhLixvKrTcJWXWxPKmQtvdWMxTTEcC5bipMMrtjQzChYVB/BICISQEYmgIEBwKhISa4FXk/qnwtTbvpxKMLMn6ifwHyx1gkSViR1urErKBWNblZZrfds6INYooIMDfD0gYF0gQD/D3BwIEILcvEBoMn74TIZze75oXMs1CCpACpAApQAqQAqpRgACWapaCAiEFSAFSgBTwJAXEuMlhSJwTohBOpSKSM7+Bt/NGntmYIZb19hXjm/7IppXhO5SYPQNYceJFNBo3cx3r3TjWzd1Nvsy7d8J7Y9mIH3FToW2/qXAgEQFRwr8ecYTMziYz8+4ly8ZGEbDLZteZ+RikZYNOa2BjCVDMwdhjMNFALEtTGwjHVDIDHXODdbOeZm/GnWKRyxRxfM/4bxZTMohljXLs31Rom6flPMZQLcrE3LpcCA0zQipdSBgMDFYZQZUhfH6TB3PTeStaFBGQDXy06XlvOSbSj5VwkX+JAqPCg7asd3svbKtx1q8F4fNbCKGfIbLjikzv0BCIWXMAeZIBcQTodu2HbusuT/p2QbmQAqQAKUAKkAKkAIcCBLA4RCITUoAUIAVIAVKAFCAFSAFSgBQgBUgBUoAUIAVIAfcpQADLfdrTzKQAKUAKkAKkAClACpACpAApQAqQAqQAKUAKkAIcChDA4hCJTEgBUoAUIAVIAVKAFCAFSAFSgBQgBUgBUoAUIAXcpwABLPdpTzOTAqQAKUAKkAKkAClACpACpAApQAqQAqQAKUAKcChAAItDJDIhBUgBUoAUIAVIAVKAFCAFSAFSgBQgBUgBUoAUcJ8CBLDcpz3NTAqQAqQAKUAKkAKkAClACpACpAApQAqQAqQAKcChAAEsDpHIhBQgBUgBUoAUIAVIAVKAFCAFSAFSgBQgBUgBUsB9ChDAcp/2NDMpQAqQAqQAKUAKkAKkAClACpACpAApQAqQAqQAhwIEsDhEIhNSgBQgBUgBUoAUIAVIAVKAFCAFSAFSgBQgBUgB9ylAAMt92tPMpAApQAqQAqQAKUAKkAKkAClACpACpAApQAqQAhwKEMDiEIlMSAFSgBQgBUgBUoAUIAVIAVKAFCAFSAFSgBQgBdynAAEs92lPM5MCpAApQAqQAqQAKUAKkAKkAClACpACpAApQApwKEAAi0MkMiEFSAFSgBQgBUgBUoAUIAVIAVKAFCAFSAFSgBRwnwIEsNynPc1MCpACpAApQAqQAqQAKUAKkAKkAClACpACpAApwKEAASwOkciEFCAFSAFSgBQgBUgBUoAUIAVIAVKAFCAFSAFSwH0KEMByn/ZeN7Ner0OGjCmROXMapEufAilTJ0Xy5ImQJFF8xI0XAL8AX/jo9RBFEaEhBnwODsaHD5/x7s0HPH/xBk+fvMbDB89x5+5j3Lr5CCFfQr1OQ0qYFCAFSAFSgBQgBUgBUoAUIAVIAVKAFPBGBQhgeeOqK5izv78vkiRNiKRJEiBt+hTIlz87vv02G776OhOyZU+DgAB/WWY3GAy4e+cJrl65i4sXbuN//7uBq1fv4dXLt3j18h3evv0IZqP2R6fTIW5ceTSRI9dPn4IRFuZe3RjojBOHNJFjPS19xI8fR26XsvoziCI+fvgsq093OPPz94Wfr487plZ0TlEERNFg/P4QGsr+DFN0Plc5V9PrIjQ0DJ8/f3FV6nbniRs3ADqd4NYYYppcDT+jVCsOBUYKkAKkAClACniBAgSwvGCRXZFinm+yonDh3ChQMCdy5MyALFlSI1XqZGAwwlXP+/efcOfWY9y8+RAXL97GqZNXcPLEZTx6+MJVIUiep1SZ79CqTVXJ45QaMGPaOhw68D+l3HP5zZkrAwYOac5l6wqj06eu4I9xy10xlWJzpM+QEqPHtVPMvxyOGRBZvnQ3Nm88Koc7t/jw8/NB81aV8VOJfG6ZX8lJ2c7YsNAwhISE4nNwiBE2vnnzHi9fvMXTp6/x+NEL3Lv3DA/uP3U7BOfV4YfCX6FT17q85orbHTl0HtOmrFF8HnsT6PQ6VK1WFLXrlIDeR++WGGKb9NWrtxg9fBHu338Wmyl9nRQgBeRSQBAgJEgKJEoOJEgCIX4iGALiAwFxIfj6Q/DxhagP/9DGYIBoCIUQ+gX4Egwh+BPET++Bj+8gvn8F8e1LCO9eAh7yAYhcEpMfUoAUkKYAASxpepG1jQJNm1dEm7ZVkCt3RgQE+MHX1weC4P5Pb9nuq+DgELx58wG7d53GX7M24MihC6pbvw6/1cTEyZ1UE1ebluPwz7wtbo2naLG82HtwsltjsJz8yOHzKFlMPWvkiDC9+jTEsJGtHRnq0jGrVu5D25bj8O7dR5fOK9dkbPfKtFnd0KhxOblcqtYPA1oGgwgD25EVFha+MyvMuHanT17F/v3/YtfOU7h6+a5qc2jeohJmzf1dNfEtXbwLzRqPcEs8qVInxeatY5H326xumZ9n0mVLdqNdm/FcOzWFrN/wuPRqG/HxbeDDW6c10BWvCejUCT2dTs7Swce3MJzcIatLVTpja5kqI5D9O+gz54EhYy7AP65pjXU605/s93xBF/4ny8Li9362XRfGLbvh/xkAdiLC+F+YCWw9uQ3cuQzx1nmE3bwIXbA2f+Y7sn5SvjeJd68CIcGOTKPZMZL0uXXRVFP0eJ0CBLC8bsmdSzhx4vj4Kk9mVK9RDI2alENgYBLnHLpwNNuRtWj+DuzZcwa3bz3DGN26AAAgAElEQVRy+1ENljoBrKgFQABL3hdFvHgBOPnvHGTLllZexwp4u3v3CSqU7YEb1+8r4F15l94EsHjVZP0K9+49g53bT+Hypdu4d/epagAlASzTKrIPn2bM7mH8ma7W58rlO6hTcwCuXb0Xa4i6Jn0hFlBvLrEm4CIDcU4/4MIR52YrUBZCo97eAbAe34Y4Wj27w51buPDRDEjFTwIhcXIgXXYI2QtAzJoXSJhMFvdcTgxhEO5dh3jzPMSb/wOePQDevjDu2vK4J1s+CB0ncqdlWDQSwqmd3PZaNxRy/wC0Hc2dhji7D3DpGLc9GXqOAgSwPGctFc2ENVmvVLkwGjYuj+8L5ULKlNoBV7bCsF+A9+05i/nzt+Hk8cuK6habcwJYURUigBVb1Uj7etnyBbFo6QAkTZpQ2kA3Wf/a7g/MmbXRTbM7Ny0BrJj1+++/B7h08TZ2bDuBrVuOG/sYuvMhgGVSv1XbKpg+s7s7lyLWuYsW/pX75zUBrFjlNBoQwOLTKcLK0wBWjgIQvvoBSJ8TQmB6iPETm3ZUufNhu2lePgae3Ydw8wLEqych3rsOiO7tzSqbJASwYpSSAJZslebxjghgefwSO59g3m+z4I+JHVG0+DfwUWlvDKlZsuMvISFh+HvOZgwd8g+ePX0t1YUs9gSwCGDJUkjROGE96IYMb4mevRsqOY2svo8fv4zihX+V1aernBHA4lOaNYJnvbPmzduCAX3+4hukgBUBLOC7AjmwYs1QZMiQUgGF5XHZu+cs/DFuGbczAlh8UhHA4tPJowAW61n1zU8QKjSBmDR15HFAiVK4xJwdQTSEQX/nCkJ3LwEuHzcdQ9TyQwCLAJaW61dFsRPAUtFiqC2U7NnToWnzCujcta7xiIGnPjf/e4ihg//Bzu0n8eyZa0EWASwCWEq+rthOyfWbRxvfpGrpkbLbQk15EcCSvhrse+70KWuxZvUB4xFDVz7eDrDYDYwLlvRHlapFXCk791zsg6Z1aw6iY/uJkn42E8Dik5gAFp9OmgdYOj2EwHQQvyoM3fflIabOIjFxFZiLBgj3b8BwYhtw7TTw/CEQFqqCwCSGQACLAJbEkiFz+woQwKLKiKIAa8Jep15J9OrTCF99ncljdl3FtNQfP37G4UMXMKjfHJw6ddVlVUEAiwCWksVWvEQ+7N7H329ByVik+F6//hDq1hggZYgqbAlgObYMoaFhuHHjAVgT87/nbjHeaOiKx9sBVsvWlY29r9T6sItYGMw+9+8NSSESwOKTiwAWn05aBlhi8jTQF64MMW9RIEV6UxN2rT/s8oELh4GD6yG+0diNpASwCGBp/fWnkvgJYKlkIdQSRpw4/ujdrzG69QiCv7+vWsJyWRxPnrxCp46TsG71AbBPf5V+CGARwFKyxqbO6IY27aoqOYUivm/deoSyJbsYG35r6SGA5fxqXTh/Ew3qDcG1q3eNl1gp+XgzwMqTNwvOnJurpLxO+WY/f4PqDDLuwJL6EMDiU4wAFp9OmgRYggDhm+JAg55AQDyJiWrHXFw2HuKpHRBCQ7QRNAEsAljaqFTVR0kAS/VL5LoAs2RJg8HDWyKofmm393F0Xdb2Zxo3dhkm/7ECDGgp+RDAIoClVH0lS54Ij56tU8q9on4/vP+E9m0nYNmS3YrOI7dzAljyKPrixRtMm7LW2Mz/8eOX8ji148VbARb73rBl+1jk/069R4snT1yFHt2mObT2BLD4ZCOAxaeTpgCWXwCEDLkglm0IIdf3EhPUoDk7Rnj9DLBrGcS7l4Evn9WdBAEsAljqrlDNREcASzNLpWygX+fJjElTO+OnEt8qO5FGvIeEhGLlin3o+ttkvHql3FW+BLAIYCn1kmjTvhqmTu+qlHvF/c6ZvQndOk/B589fFJ9LrgkIYMmlJMCOFW7ecARdu0zF/XvK7MTzRoDFLnbo2r0eBg5ujoA46uxtefbsddSvMxi3bj50qKAIYPHJRgCLTyfNACwGr6q0hvBdKYjxtXtTuMRVMZoL719D/N8BiFv/Bt67tpetpHgJYBHAklQwZBydAgSwqDYQmDIJVqweiiJF85AaNgps23oc9WoNVOxNNAEsAlhKvOjYbaFHTsxAvvzZlXDvEp9XLt1B+TLdFN2BI3ciBLDkVhS4du0e6tQcgGtX7sJgkPdMoTcCrJSpkuLeo9XyL5RMHtmHR1Ur98aenacd9kgAi086twAstmNG6bPBfOlLt3pyB+K41tLHKT1C0EHIkANCg94QU2WUfza2XqLBeCOg8RZAgwHCl88Q3r5E2IfXQPBH6EJCoIMIUe8DA7vpME58GOInhpAwKSDoTP+x/lvG//TyxxjuUbx3BeKiURCe3VfnjYUEsAhgKVb93uWYAJZ3rXeUbLNmS2ts4lqyVD4vVyL69DesPYgunabg/n35m0USwCKApcQL74cfv8aKVUOQOk0yJdy7zCcDFxvWHXLZfM5ORADLWQXtj7996zG6dp6C7VuPG3dmyfV4G8BKEZgYS1cOxk8/qXendZdOk423UjrzCD9UADLkdsaF42NTZway5OUeL57ZDeHTB257OQ3FwxuAh/8557JAWQiNenNDCXHrPAiP7jg3p7tGB3+AeNVxsKpI2AwGFakKoUIzIH5i2aYQQr5AfPUYeP4I4ouHEJ7eA148Al49geHNcwif3nOBSFGngxA/CYREyYAkKSEkSw0xRTogaSogWWrTn3of2eJmjoQPb2DYNh84vlV9RwoJYBHAkrXavdcZASzvXXukSZscs+f2RPmfveCcvBPrzD4RXrJ4F7p0nIQPH+Q9X08AiwCWE6Vpd6hOZzoiNGxkK83fILp92wlUrdhLbokU80cASxlp2QaAu3efoHWLMdi356xsk3gTwNLpdcYjxa3aVJFNP7kdrVi+F82bjAT7mavVRyhaHajbhTt8w4hGEJ45dlSSexIlDSUCLMPUzhBunFMyIq/xLcZLCF2V1kD+UrI1aheeP4Dh/CEIV05BfPUEeP8GMMIqg3y6MugWJz4QP5ERYAk5C0LIWwwiA1pyPZ8/Qji+FYa1U+XyKI8fAlgEsOSpJK/3QgDLS0uAHTFib3C7dg+CTid4qQrS0h46dD5GD1so6w4AAlgEsKRVYezWCRLExfLVQ1C2XMHYjTVgkSdXU1y7ek8DkQIEsJRdpufPX6N8me64cO6mLBN5E8AqWSo//lnUF2nSJJdFO7mdXL1yF0G1B+HSpdtyu3apPwJYMctNAEumckyeFkK9bkCO75xzyI4FBn+CePcKsH8VcOm4c/4cHM2OHrKm87pi1SFm+toE5AQZ3ptcOAJxxQTgrXKXgUhKmQAWASxJBUPG0SlAAMtLa+Pnij9g/qK+SJo0oZcqID1ttgugWePhst6MRgCLAJb0Sox5RN5vs+L0v3Pkdus2f1OnrEG3TlPcNr+UiQlgSVHLMdvjxy6hedNRuHH9vmMOLEZ5C8CKGy8AW7aPU3Wfy+5dp2HKn6ucXlN3OyCARQBL6RoU0mQB6nSRdFTVXkzC49swXDgK4cIhiLcvKR02n392nDBDTiBfKdMtiikz8I2Lzor167p8AuKGGRCf3HXOlxyjCWARwJKjjsgHCGB5YRHkyJkeew9MBuuHQY80BS5dvI0mDYbh/Hl5dgAQwCKAJa0CY7cePqI1evZtGLuhRiwuXrhlbOb+7KmKbxYK15IAlvJFFRYWhqWLd6PjrxPx0ckj3d4CsIaPbI2efdT7PWHC+OUY1G8uvnwJUb6AFJ6BABYBLCVLTMiYG2g2CEia0qlpxG3/QDixHeKb5wBrrK+2h4GsZKkhfF8eKBUE+Pg6HiGDWA9vQJw3GOLLR477kWMkASwCWHLUEfkggOVtNeDn54vJ0zqjRavK3pa6bPnOmb0JnX+bhJAvzv/QJ4BFAEu2wgQQEOCHt5+2y+nS7b5evHiL5k1GYNvWE26PJbYACGDFppB8X+/Q7g/8NWujUw49HWAJgoBq1Yth5dqhTumk5OCdO06iVrV+CA7WPrxiOhHAIoCl2OslXXYIjfoA7KIAR57gT8DTu8Da6RBvaqgPWdpsEFoMARImB3z9HMncOEa4dxWG+cOA5w8c9uH0QAJYBLCcLiJyYHw9+6KkvPdSk66qVqBEqXxYuGQAUqVKquo41Rzcy5dvjde6Hzrg/C8ABLAIYMlZ60ENShtf3572jBu9BIMGzJO1/5wSGhHAUkJV+z6fPn2Fyj/3xP/+veHwpJ4OsDJmSoVlKwejQMGcDmuk5MAnj1+iWZOR2LNLZTe7OZE0ASwCWE6UT/RDU6SD0LgPkPEr6e5ZA/YH/0HcuwI4dxAICZbuw90j4sSD8GMVCMVqQGQ3FzryGMIgnj8Mcfl4CB/fOeLB+TEEsAhgOV9F5IEAlnfVAGvWPmN2D/zSoiLYJ7P0OK7AmTPXUbhAG8cdhI8kgEUAy+kiCneg99Fh/aZRKP9zIblcqsbPyRNXUKFcd7x7+1E1MdkLhACWa5dn167TCKo90OG68HSANXJMG3TpVk+1t5F27zYNM6asVT2YllLVBLAIYEmpFy7bxCmgaz8OYsqMXOa2RsLpXTBs+Rtgx+dYM1etPno9hATJgEa9gez5HcsiLAy607sQtmS0Y+OdHUUAiwCWszVE440K0A4sLyqEwJRJcOnaQiRMGM+LslYuVdZIePHCHU5NQACLAJZTBWQx+Jtvs2LF6qHIkjWNXC5V5afYjx1w4phKGs1GowwBLNeWzKuX79C21TisX3fQofdlngywipf4Frv3/enaBZEw27Ilu9G00XAJI7RhSgCLAJaslRoQD7rav0EsWF76rXyf3gN7l0PcsUjWkNzuLGFSCLV+A74pDuj0joWzfSHEXYuAkC+OjXd0FAEsAliO1g6Ns1KAAJYXFcSkqZ3RvkMNL8pY2VR37TiFRg2Ggr2JcvQhgEUAy9HasRzHdlSyvnYTJ/9m7IPlic/BA+dQpkRnVadGAMv1y7Nh/SE0qj8MwZ+lvxHxVICVI0d6rNk4AuxPNT5nz15H3ZoDcPfOEzWG51RMBLAIYDlVQDaDhdL1gZ+bAv5xpLl99xLYNAfi6V1AqGf0l7MSIF4iCCVqQfipDsSAuNK0Ydaf3kNYMwWGU7sAdsTSVQ8BLAJYrqo1D5+HAJaHL7A5vcDAJPjv7nL4+ztxk4eXaMWbJuvB0rj+MOzbe5Z3SBQ7AlgEsBwuHouB7HKGfxb2RZ16JeVwp1ofmdLXw8P7z1QbHwEs1y9NSEgoypTogmNHL0qe3BMBVrx4AcZWAfUblpGshysGsEsZWrcYg80bj0LU8nGmaMQigEUAS67XkZC3KNB0oOTG5cL71xD/Hgjx1iXAECZXOOrzw44UFqkGoUpriFIBH8vmyR2IEzsAnz+4LjcCWASwXFdtHj0TASyPXt7I5Bo2Lmd8g0uPvAqMHrkYg/rPdfgXcQJYBLDkqMi06VLg1r0VcrhStY++vWZj/Nilqo2RAJZ7lmb7thOoUaUPwsKkfZLuiQBL7T/r2dHBZo1HOPwz0z0Vxj8rASwCWPzVEr2lkCoz8NtEIF4iae6e3QeWjtPWLYPSMrS29vEDSgdBKN8E8JH+Ab1w7hAMi0cC7IZGVzwEsAhguaLOvGAOAlhesMh6vQ4z/+qBZs0rekG2rk3xzJlrKPbDrw43oSWARQBLjort3qM+Ro1rK4crVftgu2yqVOyFt29c+ImpBEUIYEkQS0ZTtpOncMF2OHvmmiSvngaw0mcIxNYd45EjpzqPDu7aeQpNGg7Hi+dvJK2TlowJYBHAcrpe48Q39XgqWBYQdNzuxA9vgaVjgEvHPXvnla0ifgEQyjSAUK4xRB2/XhFu1k2HuG8lt85OGRLAIoDlVAHRYLMCBLC8oBZSpU5mvEq7SNE8XpCta1M0GETk/6YFLl+87dDEBLAIYDlUODaD3gfvADtG6OnP/fvP0LDeEIeOi7lCGwJYrlDZ/hzjxyxF396zJQXgaQDrvzvLwSCWGp/r1++hUvmeuHP7sRrDky0mAlgEsJwtJqFgOaBhb0AijDHM6Q/h4hFt3zToqHhs91WdLhAKV5Luge1a+3sIxIc3pI+VOoIAFgEsqTVD9nYVIIDlBYWRL392LFs1GFmyeObtZO5ewlEjFhmPETryEMAigOVI3ViOqVC5MDZsGuWsG82M79ljBib9sVKVR5AIYLmvjI4fu4Ra1fvh2dPX3EF4CsDy8dEbL3GY8GdHVfa5/Pz5ixEuzpi6VvIxT+7FVIkhASwCWE6VYqLkEDpOBFKk43fDjr9t/dt1u4j4I3OtZbLUEBr2ArJ+K33eg+sgrpmifEN3AlgEsKRXJ42wowABLC8oi3Llv8fy1UMQP77EW0xcpE1oaBhOnrgCdrzgyZNXiBvHH5mzpkapkvmQM3dGsBvW1Pw8uP8MmdPXcyhEAlgEsBwqnPBBer0ec+b1RKOm5Z1xo6mxu3adRo3KffDli/puViKA5b5SevDgGRoGDcXRwxe4g/AUgPXV15mwcesYpE+vzt1XC/7Zhu5dpuKNSo/+chcMhyEBLAJYHGVi10TU+0DfqA/E70rzu2A36B3ZBHHDLCD4I/84T7XMmAv6dmNhiJNAWoYf38EwuzeE25ekjZNqTQCLAJbUmiF7uwoQwPKCwmC9r/6a11O1mY4ctgAjRyxCyJcQmC8lYtDKP8AXzZtXxKRpXVQbuzmwLBmCcP/eU8lxEsAigCW5aCwGZM2eFivXDEOePJmdcaOpsex7RPbM9XH3zhPVxU0Ay31LwvpgtWoxFgv/2cYdhKcArPmL+6OBSm8dZIvhryutyh2T3IUiwZAAFgEsCeViZSp8VRho2h8IiMfv4stniCObAa+l//7JP4nGLAtXglD/d8lBi3cuAxN/lTxO0gACWASwJBUMGUenAAEsL6iN/oOaYeDgX1SZ6czp69Cpw6QYYytaLC9mz+uJ7NklbKl2cbbVKvfBti3HJM9KAIsAluSisRjAjg2xCxq87Vm0YCdaNBupurQJYLl3SaZPXYdunSeD9SbkebQOsNgHPd171sfI0W140nW5zdMnr9Ck0XDs3X3G5XO7a0ICWASwHKo91ridHX/LW4x/ONs1tGAYhCsn+cd4g6Wfv7GHmPBtCUDqCY6FwyGe3q2cSgSwCGApV11e5ZkAlhcs99SZXdGmbTXVZfrgwXOUKt4Jt289ivkbmiCgavWimD6zGwJTJlFdHiygnj2m488J0m8xIYBFAMvRgmZvXqfP7o6WrSo76kLT49IE1sTzZ/z9jlyRLAEsV6gc/RwHD5xD+dJdufssaR1g/VD4K2zYPBpJkko8LuOCZQoODsGwIf8Yfy6q8bivUhIQwCKA5UhtCV/9ADQbCPjH5R4u7l4GbJzFbe9Vhjm+g9CkP5BA4nuGKychLhoJvFfodwsCWASwvOqFqFyyBLCU01Y1npcuH4Ta9UqqJh5zIFs3HUPD+kPx4cOnWGPT++ixcu0wVKnyY6y27jCYNX09fuvwp+SpCWARwJJcNOEDfH198OHLTkeHa35c86ajsHjhDlXloUaANW3qWtxz4LglA6SJE8dHthzpjDfYJkuWCL6+etX3JIznVw4hIaFcdaFlgJUkSQLM/ac3qlQrwpWrq41u3XqE/Hlb4OOHz66e2q3zEcAigCW5AAUBul8nQMyen3uo+PAm8PcggN2gR49dBYzHCKXeSvjxHcT5Q4Grp5RRlQAWASxlKsvrvBLA8oIl37BlNCpU/EF1ma5auQ8tfxmNTx+DuWKr36gsFizqx2XraqP16w6hft3BCAsNkzQ1ASwCWJIKxsJY7b3tHM2Ld9zOHadQp0Z/fPrE9/2D168zdmoEWMWLdMDxo843pv2+UC7UrF0C1aoXQY6cGZyRSdGxmTME4QFnP0ItA6y27aphyoyuimrpqPObNx+iVrV+uHTxtqMuNDuOABYBLMnFm7cohJbDJQwTIW6bD2yfD/Cdlpbg24NMA9ND12kyxPiJpSV1YjvEJaOljeG1JoBFAIu3Vsgu5lrxRUn69ufhRbJt9wSULv2d6rJctmwP2rYYy/0GNHWaZLjzYJXq8mAB7d51GvXrDJJ8yxIBLAJYjhb0rXsrkDZdCkeHa37ctWv3UL/OYFw4f1M1uXgywGIis1svc+XOgDHj2qF8hUKq0d0ykKqVemP71uNcsWkVYLGjg2s3jEDyFBLfmHGp4rxRo/pDsXL5XucdadADASwCWJLK1j8OhLZjgCx5+YcZDBD71wA+vuMf46WWQoVmQAWJPYA/f4BhVHMIb57JrxoBLAJY8leVV3qkHVhesOw79/yBEqX4tya7SpK9u86gdq3+eP8u9iOE5pi+iOr8pfjokQsIqjMIjx+9lCQfASwCWJIKJty4WPFvsOdAzJcfOOJXa2OaNxuFxQvUc4zQ0wGWuT4yZkqFZSsHo0DBnKormS6dp2D65DVccWkRYLGjg0dOzEDWbGm5cnSlEbsJcv4/29C54yTundWujM8VcxHAIoAlpc6EHAVMva/iJeQeJs4bBJw7wG3v1YbJUkPoMx/w8ZUkg7B3BQzrZ0gaw2VMAIsAFlehkFFsChDAik0hD/j69j1/oJQKAdarV+9QoVwPnD19jVtlte46OX3qqnE3yJ07j7lzYYYEsAhgSSoY4y4YHUaNbYcu3epKHepx9qtX7UeDuoNVk5e3ACwmeKEfvsLWHeOQICF/02FXLNSEMUvRp/dsrqm0BrD8/HzQrUd99B3QBAEBflw5utKI/RxsGDQUt24+dOW0qpqLABYBLO6C1PtAV6kFxNJBgKDjG/boFsQxLfhsyQrw8YNQvAaQ7VtJaug+vEOYEscICWARwJJUiWQcnQIEsLygNjZtHaPa4x5795xB5Qo9ERrC1zsqT94syJM3s+pW7enT1zh86DyCP3+RFBsBLAJYkgoGMB4bZLtf2DEib38+vP+ELBnq49Wrt6qQwpsAFhP8z6md8WuHGqrQ3hzEgr+3olWLsVwxaQ1gFfw+FzZvG6vKWweZ4N/kaY4rXtj3yrLYCGARwOL65sOM4ieG0G4MkC4H1xAhLARYNh6Gk+rZdcwVuLuNfP0AX39pUbDmOp8UOKJJAIsAlrRKJOtoFCCA5QWlsXTlYNSuU0K1mU6etAqD+s3FBy+7rYgtCAEsAlhSX5i165bA0hXq2XUkNX657YcNm49hA/+R261D/rwNYOXOkwmnz86Bj4/eIb2UGLRm5X7Ur8f3+tASwIoXLwCbd4xFkSISeuUoIbAdn1++hKD37zMxlfPopovCcss0BLAIYHEXXvbvIHSYwG2Ox7eNNw+KT+7yjyFLdSlAAIsAlroqUrPREMDS7NLxBz5tdne0bl2Ff4CLLdkthBvWH8K4MUtx7n//uXh2905HAIsAltQKHD2uHbr1CJI6zGPtWd+dFImr4O3bj27P0dsAFuvHtO/wFOTOndHt2psDYDfC1q05gCserQCsOHH8MWJsG3TsWIsrL1casdffsiW70bXTFLx8qY6dkK7M33YuAlgEsLjrr3FfCAXLcZvj+FaIKycCoSH8Y8hSXQoQwCKApa6K1Gw0BLA0u3T8gQ8a2hz9BjTlH+Amywf3n2HalDWYM3sTXr9+76YoXDstASwCWFIr7tnrTUiUKJ7UYR5rL4pAzWp9sWXTUbfn6G0AK378OFixZijKlivodu3NAaxZfcB4IyzPoxWAVb7C95i/sB+SJU/Ek5ZLbUJCQpH/m5a4doV2hTDhCWARwOJ6AcaJD2HIKsCP/2ibOLsvcMn9P+e48iMj+woQwCKARa8NWRQggCWLjOp20qJVZcyY3QOCoO44zdH9798bGD1qMQ7t/x+eP3+DsDCDNgJ3IEoCWASwpJRN9ZrFsHLNMClDFLOd99dmtGhdWTH/UhyvWrEPTRoNR1goXy89Kb6l2HobwGL5/r2oL2rWLC5FJkVtF83fjha/jOaaQwsAK0VgYixbMRjFS0hrQswlgJNG799/QuOGw7Fl4xEnPXnOcAJYBLB4qlmXvzTEZnw7RZk//af3COlfE0JYKI97slGrAgSwCGCptTY1FhcBLI0tmCPhlq9QCMtXDQHroaGl58jhC9i4/jA2bTqKq5fvaCl07ljVBrC6dJqMJYt2ccevhCFrTr5xC98bUCXmt/V55PB5lCzWyRVTxfyDXRBw6Ng0fF8ot9tjYQH8UKAtVq8bhnTpA90ez9kz1423Ed508+1n3giw5i/uh+o1irm9BswB/Dl+BXr+znf9uRYA1qKlA1CvfmnV6GsZCPugaWDfOaqMzV1BEcAigMVTe/pGfWD4vjyPqdFGt2cZwjbM4rYnQ5UqQACLAJZKS1NrYRHA0tqKORBv/gI5jAArU6ZUDox27xDWHPbly3dGkDVm9BLcvf3YvQHJPLvaANarl+/c3kzfz98XgYGJZVbacXdqAVj58mfH4ePT4evr43gyMo1csWwv2rUeh+mzu6N+gzIyeXXcDbvFtFbN/ti2+ZjjTmQY6W0AK36COFi5dhjKlCkgg3ryuOjeZSqmTFrN5UztAKtm7Z+MP7vV+Bw/dgkN6g3G/XvP1Bie22IigEUAK9biS5AYQvsJQJossZqaDcTRvwCPPfODXG4RPMGQABYBLE+oYxXkQABLBYugdAip0yTDspVD8GORr5WeSnH/K1fsxaIFO3Du3xt4+PAFWANZLT9qA1ha1lKp2NUAsASdgF59GmHw0BbQ6dx/FrhurYFYv/Yguv9eH8NHtYJe7/5b6FjvvF/bSrjRSYGC8TaAxZq47z88BblU1MS9cqVe2Ln1BNfqqhlgMU1XrRuGHDnSc+XiSqNXr96hTo0BOHjgf66cVhNzEcAigBVboQqZvgaaDwYSJY/N1PT1J3chjmtFzdv51FK3FQEsAljqrlDNREcASzNL5Xig7Irz6bO645cWFR13oqKRHz58xvlzN8HAwuZNR3H86CWwnVpafAhgqTfKXiYAACAASURBVH/V1ACwkqdIjIVL+qNMWffvdLl75wl+LtMN//33EAW+z4n1m0arYsfck8evkDtnY7x3422E3gawvvo6E46enAl2S55angxp6uDxoxdc4agVYLGf2RMmdUT7X2tw5eFqo1bNR2PBP9tdPa0m5iOARQArtkLVFSgDBPWA6MfZ1uPUTohLxgAG9/Z4jC0v+jqHAgSwCGBxlAmZxK4AAazYNfIIi4aNy+GfhX09IhdzEmz3FYNZnz9/Qd9es7B61X68c+ObV0fEJYDliGquHaMGgFWydH5s2T4O7I2tu58Vy/egXavxYA2c9XodLlxZgKzZ0ro7LOP8LK55cze7LRZvA1hDRrRCn76N3Ka37cRsV262TEFgR0p5HrUCrJ8r/oDV64bDz8/9x4Vtdfx73lZ0aDsBoW6+MIFnfd1hQwCLAFbM79B1EH5uAlT4hbs8xXXTgf2rAI2fOOBO2JMNCWARwPLk+nZhbgSwXCi2O6dKmSopLlyZj0SJ4rszDEXnvnf3CVat3I81q/bj5s1HeP7steqPGBLAUrQkZHGuBoDVu29jDB3RUpZ8nHESFhaGwQP+xphRiyPcdOleD2PHt3fGrWxjP3z4hFTJayD48xfZfEpx5E0Ai0HLE2dmI0GCuFIkUtR2185TqFqxF/fNtWoEWH37/IVbd5crqpOjzi9dvI16tQfi2tV7jrrw+HEEsAhgxaiAr59x95VQsBzfa+HzR4iLRgIXDvPZk5W6FSCARQBL3RWqmegIYGlmqZwPdPS4dujWI8h5Ryr3wPpz/Hv2BnZuP4EN6w+r+pdtAlgqLybAeFTV3bcQXru5BJkyp3a7WC9fvkWl8j1x5vTViFhSpU6Guw9XuT02FkBwcAgqluuBQwfPuSUebwFY6dMHYsr0LqhU5Ue36BzdpOPGLEX/Pn9xf3ChNoC1betxsIs0GjQqqypdzcE0bzYKixfsUGVsagmKABYBrBgVCIgLoe1YIDNnT9qXT4B/BkO8e0UtJU5xOKMAASwCWM7UD42NUIAAlhcVQ0CAH+48WIkkSRN6RdYGgwHv333CmtUHMHjQ33h4X323JRHAUn8puhtg/VQ6P3bt/kMVQt2/9xRZM9aPAgg2bR2D8hUKqSLGv2ZtRId27tHLGwAWu3lwxaohKFOuIATB/RcKmIvu06dgNG8y0vj9nvdRG8BiP7MAQRUXNdhqOGTQ3xg5bCE3HORdA0+zI4BFACtGBeImBHrOhZCYs4H7g/8gzukHvHriaS8V78yHABYBLO+sfNmzJoAlu6TqdchuMhs5ui26dKujilvDXK3U8qV7sHzZHpw6eYW7ya/SMRLAUlph5/27E2Cx1+yqNcNQtXpR5xORwUP3LlMxZdLqKJ6ataiIv+b2lGEG512wm9Ea1R/mlte4GgFW2VJdcOK49E/vGZry8dWD5cRuG8yQIRClyxYwXgaSVIUfgty4fh9BdQbj/Ln/uItIbQCLO3AXG27aeAQN6w0x9pukJ2YFCGARwIpRgSSBEAYsAXR8/SzF/84Bs3oBXz7TS88TFCCARQDLE+pYBTkQwFLBIrgyhG/zZcOyVYORNas6mi67Mnc215vX73Hx4m2sWrEPSxbvxMsXb10dgtV8BLDcKj/X5O4EWNlzpseR4zOQKFE8rliVNkobWBPPnr2OMk2u3Bmxfdd4pE7D+amygoG+e/cR1Sr1xuFD5xWcxb5rNQIsVr+vXr13SAtfXx/Eix+ApEkSIm265EiYUB11aC+ZfXvOonqVPmA7sXgfAlixK3X//jM0bTjcbcdyY49QXRYEsAhgxaSAmD0fdB0m8hftv/sg/jOE354s1a0AASwCWOquUM1ERwBLM0slX6Dde9bHqDFt5XOoUU8PHz7HsMEL8PfcTTAYRLdkQQDLLbJLmtSdAKv9r9UxfmJH+KrgNrItG4+iRjX7N5kmSZoA8xb0QeXK6uiJNHb0EmMvJFc/agRYrtbAXfO1aTUO/8zdIml6Alixy9Wx3UTMnrUhdkOyMCpAAIsAVowKFK4MoX4P7leLsHcFDOtncNuTocoVIIBFAEvlJaqV8AhgaWWlZIyTvcnavGMsihbNK6NXbboSRRFnz1zHgvnbsGnDEdy949o+AwSw1F837gJYbLfLnH96oUbN4qoQqXWLsZj/91a7sbBeSP0GNUW//k2h1+vcHu+NG/fxXd6WLj/yRADLPUv/6OFzFMjX2njzrJSHAFbMau3ZfQYVynaXIqnX2xLAIoAVkwJCxV+An5txv06E9TNg2LuC254MVa6ARIAlbpgFXDyi8qTkC0/I8g0QxP8zR5zdB7h0TL4AyJNmFCCApZmlkjfQDJlSYumyQfj+h9zyOtawt5Mnr2DW9PVYuXyvpGMozqRMAMsZ9Vwz1l0AK1/+7Nix+w8kThLfNYnGMMuD+89QtWIvXLhwK1qrEqXyYc36EUiQIK7b42UB1Kk5EBvWHXRpLASwXCp3xGQ9uk7D5D+l34RJACv69Tp65AIaBg0Fe+3Tw68AAaxYtNq7AuKz+/yCusvy0S3g1gXZZ9cHdYfhxyr8fheNhHhqJ789WapbAYkAC2+eQ/z8Qd05yRid4BcHSBLI7ZEAFrdUHmdIAMvjlpQ/oZ9KfIv5i/shbdoU/IO8wHLdmgNo23o83rz+ANOtUMo9BLCU01Yuz+4CWG3aV8fU6V3kSsMpP1u3Hjfe8BZTzzh2y+nl64uQNp06vp88efwSGdPWcenxYAJYTpWZQ4MvXriFYoV/xYcP0pscE8CyL/mL52/QtNEI7Nxx0qE18eZBBLA8ZPUvHoG4eBTw0bH+gdGpoG85DIa8xfhF+qsPxIu0w4RfMJVbSgVYKk/H3eERwHL3CrhvfgJY7tNeFTM3aFQWf07uBNbDhp5IBW7efIixo5ZgyaKdih5DIoCl/qpzF8A6enImChTM6XaBGMQdNXwRhg7+G2IsreKGjmiF3n0buT1mFsDr1+9RtmQXnPsf/610zgZOAMtZBaWNZ7fiDew/F1P+XIWwMOkfNhDAsq/3lk1HUafmAISGhklbELKmHlieUgMKASx0nAghWz5ulcTJnYGb57jtyVDlChDAknWBCGDJKqemnBHA0tRyyR+s3kePOvVKYvLUzsar0umJVODNmw9YvHAHevWchWAJN1tJ0ZAAlhS13GPrDoBV4PucOHpipnsStpn148fPqFqpNw7u/1+s8WTLlg6Xri+M1c4VBgxojBi6AMOHznfFdMY5CGC5TGrjROxIa/XKvXHv7lOHJiaAZV+2E8cvo17tQXj4gI4PSi0s2oElVTGV2isFsLrPhJCe/4MpcUJb4N41lYpEYUlWgACWZMliGkAAS1Y5NeWMAJamlkuZYFnT5eatKmPEyNa0E8uOxLt3ncavbSfg9q3HYE3f5XwIYMmppjK+XA2wWEP0GbO7o0WrysokJNHro0cvkD1TfXz5Eso1cv/hKfixSB4uW6WNNm08ghbNRuP1q3dKT0UAyyUKR07C6rFJw2FYu/qAwzMTwIpeutGjFmPIwL8RRruwJNUXASxJcqnXWCGA5dN7HsJSZebOWxzTAmD9uOjxDAUIYMm6jgSwZJVTU84IYGlquZQL1s/PB7XrlsSQ4S2RKVMq5SbSoGeDQcThQ+fRtdNk2Y8jEcBSf0G4GmClSx+IIydmIFWqpKoQZ/jQBRg66G/uWLr/Xh+jxrbltlfS8MmTV6hYrgcunL+p5DQRvmkHlktkNk7Cmraz5u3OPASwolfv4YPnaNJoONfOS2fWwNPGEsDykBVVCGAJw9YACZJwiySO/gV4fIfbngxVrgABLFkXiACWrHJqyhkBLE0tl7LBsp0frOcO2/3xbb5syk6mQe93bj9GrRr9cV7GnjoEsNRfCK4GWD16NsDQES3h46NXhThZM9bHvbtPuGMpU7YAtu4cz22vtGGP7tMx+Y+VSk9j9E8AyyUyY++es2jacDiePHnp1IQEsGKW78GD5/jx+3Z4/OiFUzp702ACWB6y2goBLN2AJRCTpeYWSRzdHHh8m9ueDFWuAAEsWReIAJascmrKGQEsTS2Xa4LNniMdJk/vgh9/zIO4cf1dM6lGZrl69S6Cag/C5Uu3Y21ozZMSASweldxr40qAFSeOv/G11+yXCu5NOnz2Awf+RdkSXSXFkjp1MixaNhDFf/pG0jiljM+euY6iP7R3SUNqAlhKrWKk35v/PcQvTUbi2NGLTk9GACt2CefN2Ywuv01W9DKT2KPQjgUBLO2sVYyRKgWwes6FmCYLt0ji2FbAQ9ddRMIdGBk6pgABLMd0i2YUASxZ5dSUMwJYmlou1wUbP0FcNGxcFh061kSu3BnBdmfRA7DjhNu2HkeLZqPw8sVbpyUhgOW0hIo7cCXAypwlDXbu/QMZMqRUPC+eCXr1mImJE5bzmEbYsJ1jM//qgaYqgXAssNIlu+AQRxN6SYnaMSaA5ayCMY9n/djatRqPrVvkuVaeAFbs68Vu8/y923QsnL/N+POPnpgVIIDlIRWiFMDqOh1ixtzcIokTfwXuXOa2J0OVK0AAS9YFIoAlq5yackYAS1PL5dpgWXP3tOkD0aVLHXTsXNu1k6t4trCwMKxcvhdNG41wOkoCWE5LqLgDVwKsoAalsXDJAMVz4png2bPXqF29v0M7XWrVLoEFS/rBz8+XZyrFbU6dvIIihdorPg8BLOUkfvr0FVr8MgY7t52Q7TINAlh86/Xq1TvkyNIQb16/5xvgxVYEsDxk8RUCWD7txyEsZ0F+kaZ1g3j9LL89WapbAYkAS7x9EfoX/C0c1J08R3SJksKQLR+HocmEABa3VB5nSADL45ZUmYTSZwjExEm/oXCRrxEYyN+AUplo1OF1cP+5GD9uOb58CXE4IAJYDkvnsoGuBFhbto9D2fISfrlVUIVDB8+jUdAQsF0vUp9kyRPh+q2liB8/jtShitg/evgCpX7qBHb8TMmHAJYy6j548Ay9f5+JlSv2wRBmkG0SAlj8Um5cdxjNmozA+/ef+Ad5oSUBrFgWfeci4Ok91VeG+OQucPeK7HHqmg2EmL8Uv995AyGeO8hvT5bqVkAiwDIsGgnh1E515yRjdELuH4C2o7k9EsDilsrjDAlgedySKpcQ64f1/Q+5UbtOCVSrXgxp0iZXbjINeGZv7Fkvlr27zzgcLQEsh6Vz2UBXAawcOdPjwpUFLssrpolEUcTUyWvQq8cMh3tHrVg7DDVqFFNFPsHBIejeZSpmz9ygaDwEsOSXl90gyepw964zMBjkg1csUgJY0tZr5PBFGDF0PkJCQqUN9CJrAlgxL7ZhamcIN855UUXYpFrrNwg/1eLOX1w2ATi2idueDFWuAAGsGBeIAJbK61dF4RHAUtFiaCUUdiwoMGVitGpdFW3aV0Py5Im0ErqscbI3+Vs2HUOdmv0R5uCuAAJYsi6JIs5cBbBGjG6D33s1UCQHqU5ZPdeu2R9bNh6VOjTCvsD3uXD0xAyHx8s9cMminfi13R/4+OGz3K4j/BHAklfao0cuolXzMbh+TZkdGwSwpK3X/fvP0LDeEIeOFUubSbvWBLAIYMWkgK5MA4hV2/AX+JZ5EHcs5LcnS3UrQACLAJa6K1Qz0RHA0sxSqTPQwJRJjDem1Q0qhUyZUyNx4vjqDFTBqBoEDcHqFfscmoEAlkOyuXSQKwBW8hSJcPDINGTNltaluUU3GdthkTZlTbx+5VzPmwdP1iJFYGJV5MSOD/5ctjvu3H6sWDwEsOSR9tnT11i+bA/Gjl6Cxw4cYeWNQm0A6+3bD9DpdKo5emtPx107T6F+ncFgsdITVQECWASwYlJAzFcKul8G8r90jmyAuGIivz1ZqlsBAlgEsNRdoZqJjgCWZpZK3YEykPVD4a/wc4VCqFi5MNKnD1R3wDJGd+vmIxT5oT1ePH8j2SsBLMmSuXyAKwBWk2Y/Y8r0LmAARA3P6pX70aDeYKdDGT6qNXr2bui0H7kcsCO/bCeWUg8BLOeUZUcE2VHB6VPWYPMmx3f/8UahNoC1aeMRsH5trdtW5U3BLXZr1xxAUO1Bbplb7ZMSwCKAFSPASpcduh6zuctYuHQMhjn92BXY3GPIUMUKEMAigKXi8tRSaASwtLRaGojV19cH8eIFIKhhGXTvEWTcleUNT+sWYzH/762SUyWAJVkylw9QGmD5+vlg9Lh2+K2Tem76zJ+3JS5euOm01pWrFsHaDc7f1ul0IOEO9u07i/KlusnlLoofAliOS8t6Cg4eMA9LF+8C61nGjmgr/agNYLHcu3WdhkdP1yqdutP+69cdgjWrHNt57PTkKnZAAIsAVowKJEgM3YAlEP04Lzi5c8l009qHtyquegqNWwECWASwuIuFDGNSgAAW1YdiCgg6AT//XAi16pZAwYK5kClzKlUfjXBGiI0bDqNJg2H4+DFYkhsCWJLkcoux0gCL7V7cumM88n6TxS352U7KQELGNHVkiSVzltRYtnII8n+XXRZ/cjj57tuWuHDOeThnLxYCWNJW6MOHT7hx4yHWrz2I2TM24OnTV9IcOGmtRoDVrPEIlK/4AxYt7o/ESdR7JP/Sxdtgx+cvX7zt5Cp41nACWASwYlQgTgIIXacBgen5Cv/JHYhzB2ji5ka+hLzcigAWASwvfwnIlT4BLLmUJD/RKsB2ZWXMmBJ5vsmCsuUKonGT8ogbTx1HpeRathvX7yOoziCcl/jGWG0A69rVu3j86KVcsjjkJ2GieMiXXz3AQ2mAVb5CIWzaOsYhrZQYtH7dIcydu1kW135+PujRoz4K//i1LP7kcLJi+V40rj9UDldRfBDA4pP106cv2LzpCDasO4Rjxy7h9s1HfANltlIrwNL76DFmXDt06iIPSJZZtgh3c/7ahF/bTFDKvSb9EsAigBWjAv5xIDQfAuT6nq++374E5g+F+N//+OzJSt0KEMAigKXuCtVMdASwNLNUnhGoIAjQ6QTUqP0T+g1oijx5MntEYqzpNWtsy3ZiSXnUBrDathrn0FFIKTnHZlukaF7sOTApNjOXfV1pgLVo2UDUCyrlsnxim4gd3ZLz9BZ7zQtCbLO67uvXr99HmRKdFQG1BLBiXsfPn79g5vR16N9vDkKCQ11yTDCmiNQKsFjM7EKHNetHIPdXGV334pA4E/te0aLZaCxeuEPiSM81J4BFACtGBfQ+EGp1BIpW53sRhIYAS0ZDPLOHz56s1K0AASwCWOquUM1ERwBLM0vlmYEWKpwbNWoWR4mS+fF1nkyqaWLtiNpjRi/BgD5/SRqqNoDVpuU4/DNvi6Qc5DYuWiwv9h6cLLdbh/0pCbBSpUmGuw9WORwbDZSuALs9jdX5mlX7pQ+OZQQBrNgl3bb1OGpV64fQ0LDYjRW2UDPAYqnXqFUcK1Yrs1tQLmlDQsJQomgHnDp5VS6XmvZDAIsAVszv0AWgRG0I1doDOh1XrYs7FwFb5kHWT5a4ZiYj2RUggEUAS/ai8k6HBLC8c91VlbVer0OatMmRK1cGNGxSHlWq/IhEidXb+yM68bZvO4GqFXtJ0pYAVlS5vAlg9ehVHyNHt5VUM2TsvALTp65Fz+4z8OVLiPPOLDwQwOKTs1b1/tgkcbcqn2dpVmoHWOwo4cRJv6Hdr5y7NaSlL4s12625cf1h/NpuAp4+cW0PM1kSkNkJASwCWLGVlJCnCNCwNxA3QWympq9fPgGR3UQYFspnT1bqVYAAFgEs9VanpiIjgKWp5fKOYLNlT4fefRqifqOyYP2z2BEkLTx37jxG9kwNJIVKAMt7AVb8+HGx9+AkfJsvm6SaIWPnFTj373+oUK47nj9/47wzlQMsttPJx0cva55yOEscvyI+fvgshyuHfagdYLHEEiaMhw1bR6NIkTwO5+mKgX16zcKEsctcMZWq5yCARQAr1gJNlQlC65FAMr5bunUf3iJscD0gRNolQbHGQQauV4AAFgEs11edR85IAMsjl9UzksqXPxuat6qMnysUQpYsaVSfFDtKkSxhJbA+L7wPASzvBVgVKv6Afxb1RdKkCXnLhexkVKBi+d+xe+cpGT3CeAR62qxuaNS4nKx+nXHWu+csjB6rvl1+w4fOx6jhi8D6B7rr0QLAYh/g1A0qhemzuiNhwrjukopr3sIF2+LM6Wtctp5qRACLAFaste0XAF27sRCz5I3V1Gwgzh0InD/IbU+GKlWAABYBLJWWptbCIoCltRXzsnj9/X2RI2d69O3fFLXrllB99nlyNcW1q/e44ySA5Z0Aix2bHTikOfr0a8xdK2QorwJr1xxAUO1BsjpVI8D6uWx3dOsRZPwgQE0P+z7Jbm69eOGW28LSAsBi4sSJ649RY9ri14413aYVz8SXL99Bzap9cfO/hzzmHmlDAIsAFk9h6yu1hKE8/89/3cVjCPurD49rslGzAgSwCGCpuT41FBsBLA0tlqOh+vn5OjpUsXHs9iKpn7y3aV8d4//4FQEBforF5azj8mW6Yd+es9xuCGB5J8BKkCAu1m0ejeLF+T+B5S4qMuRWIGum+rh35wm3fWyGagRYxYt0wDffZMXkaZ2h16vrKOGkiSvxe7fpscmq2Ne1ArCYAP4Bfnj0bB3ix4+jmB5yOF60YAfat52AYAk7keWYVy0+CGARwOKqxUxfQ+gylcvUbGQYEgTh1VNJY8hYZQoQwCKApbKS1Go4BLC0unKccQs6AdNmdee0dp3Zs6evMX3yajyR2PS1cdPyGD+xg2qPXdWtPRDr1/Bv8yaA5Z0A67sCOXHs1EzXveBoJrsKsJ49rHePXI9aARbb7TR/UT+wY6tqe77N0xyXL952S1haAlhMoDLlCuCfhf2QMmUSt+jFM+nzZ6/Rod1EsB2O3vgQwCKAxVX3ggB934UwpEjLZW40WjMV4oHV/PZkqT4FCGARwFJfVWoyIgJYmlw2/qBZ/4w3H7epbtcSA1eN6w/F/n3/8icDgO0mmzj5N7RuW1XSOFcZN244HCuW7uaejgCWdwKsqTO7ok3batx1QobKKPC/f2/g5zLd8fLlW1kmUCvAOn70EkqXLYBtO8fLkqecTq5fv4+8uZvBEGaQ0y2XL60BLF8/H4wZ1w4dO9Xmys9dRo8evkCxIh1k3d3orlykzksAiwAWb80I5ZsAlVrwmgNXTkJcMAz4+I5/DFmqSwECWASw1FWRmo2GAJZml44/8Jt3VyBd+hT8A1xg+f79J7RtNQ4rl++VPFuZsgWwYEl/pEiRWPJYpQc0qj9UUk4EsLwPYCVMFA/PX29SuhTJP4cCT5+8QtOGw7FnzxkO69hN1AywWPQLl/RHUIMysSfiQguDQUTrFmOxaMF2sKPlrny0BrCYNpkyp8a6jSPx1deZXCmV5Lk2bzqKhvWG4NMn77o5jQAWASzeF4uYNCV0PecBAXyXMwhvX0CcPxTif+d4pyA7tSlAAIsAltpqUqPxEMDS6MJJCfvw8en4vlBuKUMUt2VvWgYPnIexo5bAYJD2yXv6DCmxeftY5MqVQfE4pU5Qo1o/bNl4hHsYASzvA1it2lQx3ihGjzoUGDFsAYYPmY8wGXYAqR1g5fsuOzZsHo1UqZKqQ/zwKI4euYiGQUPw4P4zl8alRYDFBCpV5jts3zXBpVpJnYzdxjtowDxMm7wGX76ESB2uWXsCWASwuIs3IB6EJv2Ar3/kHoI9yyFuoPYD/IIBiJcIiJ9I0hCj8ZO70sfENoIAFgGs2GqEvs6lAAEsLpm0bbRs5WDUqqO+G/w2bDhs3P3w8cNnSQIHpkyC7bv+wNd51PcJdIliv+Ho4Qvc+RDA8i6AFTdeAFavGw62i5AedShw6OA5VK3YCx8kfh+yF73aARa7AOOPSR3Rqo26jmB/+RKKnt2nY/rUtS4tCq0CLNYaYOiIlujVp5FL9ZI62Zs3H1D6p844f+4/qUM1a08AiwAWd/EKAlC0OoQa7QEfzsuJPn9E2KB60AV/4J7Gqw394pj0zS2t/6Pu9VOETfpNfukIYBHAkr+qvNIjASwvWPbho9ugZ68Gqsv01at3KFKoPf678UBSbMlTJMaO3X8gT97Mksa5wjh75ga4c/sx91QEsLwLYP1Q+CssXTEI6dIHctcIGSqvQL68LXDpwi2nJ1I7wGIJFi2WF8tXDQH7IEBNz40b9/Hj9+3x5vV7l4WlVYDFBAoMTIIlywfhp5LfukwvRybas+s02OUm795+dGS45sYQwCKAJaloU2aA0HYMkDQV9zDh8AYYVk8CJJ5e4J7AkwzTZoPw+1+SMxLXTgX2K9AwnwAWASzJ1UgD7ClAAMsL6qLpLxXw17yeYJ/aqu1ZuWIfmjYcJun4TsHvc2LF6qGqgwDBwSFImrASQr6EcstMAMt7ABZ7/XX/vT5GjmnDXR9k6BoF5vy1Cb+2cf5IlhYAlp+/L2bO7gF2o6vanhXL9xov93DVo2WAxTSqU68k/prXC/HiBbhKMofmmTVzA37vOg3sWKGnPwSwCGBJrXGhdiegeE3+YaIIcVJH4PYl/jHeatmwN4RCP0vKXnj1BIYxLYHPCuxyI4BFAEtSNZJxdAoQwPKC2ihV+jssWzUYSZIkUF22oaFh6NZlKmZOW8cVm4+PHv0HNTMendDrdVxjXGV06+Yj5MzaUNJ0BLC8B2CxGzRXrBmKSpULS6oRMlZeAfbGOmvGIDx7+tqpybQAsFiCadImx+37K53KVYnBrOF39cq9sW+vtNtpHY1F6wDL19cHw0a0QrffgxyVwCXjXr9+jxbNRmHTBv7+kC4JTIFJCGARwJJaVmLi5PDpvxQGHx/+of/uh7h0LBDsHTsb+YWJtBSyfQu0Gwf4+EoaLu5eBmycJWkMtzEBLAJY3MVChjEpQADLC+ojd+6MWLZqCHJ/lVGV2b54/gZ9es7C+vWH8Opl9NcDJ02WENVrFMOosW2RNGlC1eWyc/sJVK7QS1JcBLC8B2Cxm0DZjaD0qFOBbp2nYOrkzo319gAAIABJREFUNU4FpxWAxZLsN6gZBg3+xal8lRi8ft0htPxlNN6+UeDTb5uAtQ6wzOlcv7UUGTPxH0FSYt1i83ni+GVjo/67d57EZqrprxPAIoDlSAELVVoBZRoCvCcl3r8BloyCeOm4I9N5/hj/OND9Mhhi7kLScn39DPh7MMQ7Cu1uI4BFAEtaRZJ1NAoQwPKC0kiYKB5YI/ey5QqqNlvWH+PgwXPYuvkYzp69jvv3nuLz5xDEieOHtOlSoGDBHCj3cyFUriLhthYXZztxwgr06jFD0qwEsLwHYA0f2Ro9+0jboSepmMjYKQVYM/dqlXrj/ftPDvvREsDKlDkVNm0dixw50zucrxIDWW/Elr+MwaYNh5Vwb+XTUwAW22U9d35vpEuXQnHNnJlg65bjxh12nvwQwCKA5Uh9i4HpoGs9CkiRjnu4cPcKDNN7KHPUjTsKFRoKAoRCFYFaHQH/ONICPLkD4so/gS+O/x4Q44QEsAhgSatIsiaA5d01wI4Z9Oqr7huL2Aqx26iCg7+AHS0URdHYt4sdGwzw94Ovn4Tt1W5Y7qZNRmDZol2SZiaA5R0AKyCOP5692gh/f2lb2SUVExk7pcDtW4/RoO5gnD591WE/WgJYOp2A4aPaoEfP+g7nq9TAI4cvoGQxBW6AsgnYUwAWO04/eVoXtG6rrtsl7dVH+7YTMHf2JqVKx+1+CWARwHKoCBl0qdYWKCXhOLAoQnd4A8JW/enQlB47KCAedB0mQEyfU3KK4uROwM3zksdxDyCARQCLu1jIMCYFaAeWl9RHyVL5sWPPH16SrevTfPjwOerXGYxjRy9KmpwAlncArOatKmHWX79Lqg0ydr0CXTtPwfQpayCKjs2tJYDFMsyRKwN27Z2IVKmSOpawgqMG9J2DMaMWKzgD4CkAi4nEdipv3DJGlbfzWi7igwfP0aDeYBw7Iu1npaKFIKNzAlgEsBwtJ4Htvmo9EgiUsCs2LBTisvHA6V2AIczRqT1nnK8/dLV+g/hjZck5CUc2wbDC+ctcYpyYABYBLMmVSQPsKUAAy0vqgr2xOv2/OciaLa2XZOzaNI8dvYT6dQaBgSwpDwEszwdYAQF+WL1+BMqVV+8RXik168m2mzcfRd0aA4w7QB15tAawWI5qPdr64sVblCreCVcu33FkKbjGeBLAYgl/my8bTp6VfmU8l1gyGq1dcwDNm4zCx4+fZfSqDlcEsAhgOVWJBctDaNxHmosnd2CYPxTCw5vSxnmgtVCkKlC3K38vMbMGT+9BnN4dYD2wlHwIYBHAUrK+vMg3ASwvWuzfOtfBhD87eFHGrkt1xrR16PLbJMk7NwhgeT7A+uqrTFi+eghy5srguoKkmRxSwGAQkTZVLbx45ththFoEWOz42afQ3Q7ppfSgGdPXoUeXaQgJCVVkKk8DWEwk1iqAtQxQ88NeZ6xf5KSJ6rsJ01ndCGARwHKqhgQBusZ9IRYoK8mN7sa/CJvaVdIYjzPOnAdCswFA4kBpqRnCIK6dBhxkt6E7uP2ad0YCWASweGuF7GKuFV+UVPjVSiugFgXixY+Dy9cWIlXqZGoJyWPiqPRzT+zacVJyPgSwPB9gtWxdBTNmd5dcGzTAPQqMGrkIg/rNdWhyLQIslmjzVpUx668eDuWs5KDbtx8bd7aeOX1NkWk8EWClTp0Mi5YNRPGfvlFEMzmdlivdFfv3/iunS7f7IoBFAMvZIhRSpIXQehREKUcJAQhn98KwZgrw7pWzIWhvfPK0EBr3BTJ9JT3262eBxaMgKr37ikVGAIsAlvQKpRF2FKAdWF5UFqwh+tgJ7dG5a10vylr5VC+c+w9Ff+yATx+DJU9GAMvzAdbCJQMQ1KC05NqgAe5R4NnT1/g6V1O8fvVOcgBaBVjp0wdi+eqhKPi99Ka3kkWSOGDJop34pclIiaP4zD0RYLHMq1YvihWrhkDvo+cTwk1Whw6dR4tmo3D75iM3RSD/tASwCGA5XVV6H6BIVQjV2wM+Ei5+YT2wjm+FuGEW8Om902FoxkGKdBCaDgDS55Acsk4UEcaODjKI5YqHABYBLFfUmRfMQQDLCxbZMsUfi+TBkuUDjQ1f6ZFHgYZBQ7FqxV6HnBHA8myAxaBxsGGPQ7VBg9ynQMOgIVi1Yp/kALQKsFiiLVtXxp9TOqvypswaVfpgy+ZjktcjtgGeCrBY3n0GNMGQoS1ik8DtX//zj5Xo03MmwsIMbo9FjgAIYBHAkqOOmA/9L4NgyFdSursjGyGunAjJPS2kz+T+EYlTAC2GQsiQy6FYhA2zYNizzKGxDg0igEUAy6HCoUG2ChDA8rKaiBvXH1NndEPjpuW9LHNl0j1x/LLxundHmz4TwPJsgNW1RxDGjGunTPGRV8UU2LrlGOrVGojg4BBJc2gZYKUITIKtO8bhm2+zSsrZFcbsKGHRQu3xzMHeZNHF6MkAi+XMGrqzxu5qf8qV6Yb9e1y0A0JhMQhgEcCSq8TEeImgazMSyOjAsbgT2yBumad8U3K5knXEDzs2WLsTkLuQ9NEGA4R/98KwdCwQ8kX6eEdHEMAigOVo7dA4KwUIYHlhQWTPkR7HTs1EggRxvTB7+VJmNyh16TQF8+dtcfiDLgJYnguw4sTxx9WbS5AqVVL5io48uUSBS5duo36dwZJvwNMywGLCVq5WBGvXj3CJxlIm+fIlBAP6zsGkiatgMMi3U8fTAdZPJfNh3vzeyJAhpRS5XW57795TVKvUGxcv3HL53HJPSACLAJasNcUakzfsBaRI9//27jzcrvHuG/hvn4xoRBKESEiitEWFlhgj5RFUQhtTzS1e9bZqrrmGRIxVHkTf1lRzQkhbpFLU1BIzVYIYKiOSGDLPZ7/XOqpPniLZZ0+5zz6fdV29+kfXuu/f+ty/c5rz3Xvdq3HDZo8TvvZM5EcOjfhwSuOubQpnZy77nRCxds/iqv1wStRff1b139wowBJgFdexrvoPAQFWM22JI3+yZ1x51XGRvYHKUZzAs8++3vAtjcmTin/trgCrdgOs3ftvE3+4rzJ79xTXsRELFy6OBQuq+GljgYVmwU9qv4sOOfC8uGNY4x7/bOoBVrZcv7/n/Oi/x7YFrlz1TnvxhXExcI8zY8qU6WWbtNYDrAzqdzefEQcd0q9sZpUa6JGHX4i9v/eLmD17XqWmqMq4AiwBVtkbbfMdI3fgaRGtWjd66NzMj6L+liERb/89oozhf6MLKdcFdXWRW79Xg0e+QyPfNvhZDYsXRVx7RuTfeK5cVRU+jgBLgFV4tzhzGQICrGbaHm3atIrf3XJG7LV336iryzVTheJvO3sNeLZPzsi7Hit+kIgQYNVmgNWqVcu4ddhZMXDvHUrqj3JffOXld8VFF96a3H4zV//mxNhn3yL2+ig30FLj3Xbrg3FYIzcPr4UAa9fv9o6bb/tFdOjQroK6xQ09+JwbY8jgm4q7+Auuag4BVvZo6D2jLoxvb5HeBv1LL8nMGXPitFN+E9ddc1/Z1ndFDCTAEmBVou/qtukf+T2Oili5iN/L8+ZEPDw88k/fHzHzw0qUV50xO3SO2G7PyG07IGLlVYubc9bHkf/DryOef6i460u9SoAlwCq1h1zfICDAasaNsEXvr8ftd5wT3buv1YwVirv1a665J048Zmhkj7aUcgiwajPA6t5j7Rg+4tz41rcb/1acUvppWddmb9U7/IcXxX33PlmpKYoet9+uW8ao0ZcUfX0lLpw5c25077pvzJ41t+DhayHAat9+lYYPNwYk+C2sGZ/Mjn47nxQvPT+u4DVZ1onNIcDK7r9Hz7XjjbdvL4tZJQeZ+sHHsVPf42LcGxMrOU1FxxZgCbAq0mC5iPz2A6Ou//+JaFvE9h+LFkRMnRT5+66NeO3pipRYyUFzm/aJ+O5hEWt1j8gV+aH7gnkR914T+SfvjcgesVwRhwBLgLUi+q4G5xRg1eCiNuaW9t3vO3HdjadFtl+PY/kC+Xw+xjz5avTf9eSYM2f+8i9YzhkCrNoMsLJvXt1x16CS+6OcA2R/FO684wnx/ntpfgI7Y+7o5H4PnXT80LjqirsLXoZaCLCym919wNYxYuR5kX2TMLXj7y+9Fdv2/kksWrS45NKaS4CV/b130skHxODzj4iWLVuU7FbpAdqvvFvMm7eg0tNUZHwBlgCrIo2VDdqyZUS/gyO380ERLUr43fziw59+C2n2jIglpf8erdj91tVFvv3qUbfjDyJ22Ku0aRYvjLoHboslD9xc2jilXi3AEmCV2kOubxAQYGmEOOLHA2LIBUdGp05FfiW3GRlmf/wf9sOL4uGHno8szCr1EGDVZoCVPRJ35FF7lNoeZb1++O1/iUMPGlLWMcs52IUXHxUnnbJ/OYcseaxx4ybGVt/6ccFhda0EWK1bt4p7R18cO+64ecmG5R5gxow58X+PvLTh8e1Sfwc3lwArW4PsZRJ3//H82LJ3ca+bL/c6Lmu8X148LM4ffHNkL0ppaocAS4BV0Z5t2Tpih4FR918HRPaWwmKP3IfvRf1Lj0S8/LeI8a9HROn/ni22ls9dV9cicl16Rn6jrSK3df+IjiU+JTL7k8g9dFvUP3pX2UoseiABlgCr6OZx4dICAiz90PCJ7E+P2SsGn3d4rLxKWyLLEMj+cLrlpj+X5dP/bBoBVu0FWLm6XEz7+L5YddUivuZfwZ++fjudEI898lIFZyht6E2+2TNeePn60gYp89XZG+/22O3UePDBwjZ7rZUAK2Pstm7neHv88DKLlme4P/3pqThk//NiViMe7/yimZtTgJXdf98dN4sHH768PItQwVGyjdwP3H9wjB71VAVnqczQAiwBVmU6a6lRs43MN98xYuDPIr6yWvHTZY/RZXtC/fOVyD/xx4h3/hG5JSvo0brP7qL7RpHb/vsR6/eKaN8poq7Eb4xmjw3+4deRf2Z0Gt82E2AJsIr/iXXlUgICLO3QIJC9AeyMsw6JE3++f6wixPpcV2SPC55z9g1x5WUjytoxAqzaC7AOO2L3+O11J5e1T0odbNbMudGpff9Sh6no9R07rRp/vO/C2GrrjSo6T2MHHz7sLw2buS9ZUr/cS2spwMpu9vIrjomjjy3x0Y3lqhV3wkEHnBcjhjfuLZH/OVNzC7Cy+z/m2L3jV1f8rDj0Kl719FNjo/+up8TMmXOqOGvpUwmwBFild1FhI+R69Y3Y9/jSQqyl/yCcOC7qn/5TxNinI+bPiZg/t7J7RWXhVLaf18rtIv/VzSPXe7fI9dyksJsv5KzsEcmRV0b+hdL+f6KQqQo+R4C1TKrcN7aKOOqigjnz15weMbbpfdBR8A068UsFBFia438JZI89nXnWodFlndXJ/Etg9qx5cdEFt8YVl4+IBQtK27T9P1EFWJ9vs+22/2Y88tcrk+m/J5/4R3xn+2MLqqdN29bxt6eujl69vlrQ+dU66cIht8Q5Z91QremKmifbb+mCS46K447fp6jrK3XRs8+8FgfsOygmTPhguVPUWoDVe6tvxJ0jz4suXTot996rfcLbb06OXXY+MSZOmFr01M0xwMr2uxz150ti+z6bFu1WrQvvGvFoHHnYxQU/wlutupY1jwBr2atQP/S4yL31cgpLVRM15HpsEtH/iIie3yz920r/EsnNnhH5yW9Gfso7kXvvnU83f//o/YjZH0fUL/+DnGXB5ldbI+o6rh25NbpEvvN6ke+yfuS6rB+xasfyrUe+PvLvvBIx+saIN18s37jlGEmAtUxFAVY5mqx5jCHAah7rXPBdZt/E+m7/reO6350aHTvaEyuDO+HYK+P6a0fF/PkLC3Ys9EQB1uelmnKAlf1ReP+Dl0abNq0KbYGqnNf7W0fGSy++VZW5Splk732/E9dcf3K0a5fO45cLFy6O7w84PR4q4DHCWguwslDx1uFnxcC9dihlWSt27e9HPh4/2PucosdvjgFWhrVdn03jltt/EV27rlG0XTUuXLx4Sfz0qF/FjTfcX43pyjKHAGs5jB9PjcjeiNcUj+mTo+EbH4kd+fadoq7fwRHZo3flPhYuiFg4L2Lh/MjPmRG598dHbtrkyH/yQeRnfhT5OTMjt2Be5Bcvily2j1b2rarWbSLXdpWIVVaNXLtOke/UOXKrrxO5zutFfZuVIlq1jWjTNqJV62wr5nJXHLkxf4r6UddGzJkRUYa9astaoABrmZwCrLJ2W00PJsCq6eUt/uY22qRH3Db87OjZc+3k3gxW/F0VfmV9fT4mTZoaZ5z627hz+COFX9jIMwVYnwdrqgFWXYu6uOa6k+PQH+3WyC6o7OlPPvFK7DvwrJg27ZPKTlSG0bv3WDseePiy6N69xE1by1DL0kNcfdXIOOHYq5Y7aq0FWNkN99p8g3j2hWuWe+8r4oRJE6fFgT8YFE+NebWo6ZtrgJVhnXLagTHkwiOLcqvmRa+NHR+HHDgkXv57+gF85iLAqmZ3VHmu99+N/EWHVXnSRky3Tf+o2+WQyLdfI6KurhEX1sCpWVA1Y1rkH74j4vGR6d6QAEuAlW53NqnKBFhNarmqW+xqHdrFj4/aI44+Zq9YO8FHSCqpMfr+pxvegvTcs68XtPdNsbUIsGonwFpr7U4NoW+fHdJ6NGfolSPj1J//v7K9eKDYXi/kumwD/OF3nhsD907rGz9TJk+Pb2x4cMybu+xvDtRigJWt2w03nR4HH7pLIUtY9XOu/e29cfwxVxbV3805wGrffpUYNmJQ7Nzv21Vfs8ZO+OgjL8YuO53Y2MtWyPkCrBXCXp1JUw+wcrmI7JG8Pt+P2GKXiJZpfRO8You0YH7kX348co/fHfnJb5X8mGPF6swGFmAJsCraYM1ncAFW81nrou40e4Rkzc4dYujVJ0T/PbcpaoymdNGcOfPisl/dGf996Z0lv+GqkPsWYNVOgNWnb68Y/eClkf3MpHJkb2n78RGXxN0jHkulpOXW8b2BfWLEyMHLPa/aJ/zw4Ati2G0PLnPaWg2wVlq5TcyYM7ra5AXNl+1LuMN2P4sXnx9X0PlLn9ScA6zMYd31Ojd847Fnzy6Ntqv2BWeeek388pJh1Z620fMJsBpN1nQuSD3A+kyyVZuI9b4Wub2Oi+jSs+n4FlPptEmRv/OyiHfHNo1HUwVYAqxi+tw1nxMQYGmKggSyjV/33q9vHHvcPrHBht1q7k2F2Ubtr7zyTpz9i+vj8UdfiuwRwmocAqzaCbCGXHRknHLqgdVom4LnmDhxavTd/piYVMJG1wVPVqYTs/3DJr43Mlbr8JUyjVieYcY8+Wr02/H4yPbE+rKjVgOs7H5/fsoBMei8w6NV63QC2s/W4W9/fTn27H96zJ41t1GL3dwDrGzPy+NP2i/OHXx4cvv2/edCZm8C3n+/c+OB+5+JfGr72ixVrACrUT+CTevkphJgfab6ldUit+2AiC13jejQuXa+kbV4UcRH70fuuQei/ol7P93rqqkcAiwBVlPp1cTrFGAlvkCplZdt+rrzrlvGgQf3i759N4vsG8tN+ciCqjFPvhI3XDcqsscGp02t7j5BAqzaCLBatmwR494ZFl27pbUp8t13PRYH7Htuk/sRveLq4+InP63AhrQlSGSPD/bb6YR45unXmmWAteHXusUddw2KjTfpUYJi5S7NHvkedM7vGjVBcw+wMqzV11gtrr3hlOg/IP1vWD/+2N/joP0Hxwfvf9Soda7myQKsampXea6mFmB9xtN53chtvG3Et/8rYp203pDc2BXMjX8t8i8+GvmxYyKmTmzs5Sv+fAGWAGvFd2FNVCDAqollrO5N5HK5aNO2VWzfp1ecdfahsc12m1S3gDLN9sbrE+KCIbfGH0Y+3vCGwRXxqa4AqzYCrO/tvUOMuGtQmTqzfMN8b8Dpcf+op8o3YJVG2rbPpvHo41dUabbCp/n10N837Lf0ZUctfwMr+71/2hkHxaAhRxQOVsUzX/nHO7HvXmfH229NLnhWAdanVBts2DVefeOWgt1W1In19fXxy4uGxVlnXreiSljuvAKs5RI13ROaaoCViefqGt76l+vVN3K7HhL51ddpUutQN+nNWPLnmyPeeC5i0cKIfH2Tqv/fxQqwBFhNs3OTq1qAldySNK2Csv1+ttpmo9jvBzvG1ttsHOutt1Z06NguyZtYtGhxTJ40Pd5+e3LcctPouPeeJ2PWzMY9clLuGxNgNf0AK/sZuHfUhbFTvy3K3R4ljTd9+ozo2nmvyP7oa2pHl3VWjz/ed2H02iytT4sf/svzDW9E+7JvatZygJX1UPaigqee+0106bJ6ki2VBRuXXHh7wR9GCLD+ZxmPOHJAXHr50U1ie4CBe54Ro+4dk2QPCrCSXJbyFNWUA6ylBVq3idzXe0eu1w6R77pBRMe1IrJ9s1I65syM+PiDyL5xVf/SIxFvvpRSdcXXIsASYBXfPa5cSkCApR3KIpA9StitW+fIHjPZauuNYvs+m8bW226cxD+G33vvw/jrX1+ORx9+MV547o149dV3Y8H8hWW571IHEWA1/QBrs803iAcfuTyyt3qldFx1xd1x0vFDUyqp4Fratm0d/z30uDj8iN0LvqYaJ86YMSd23+Xn8ewzr3/hdLUeYGU3fcBBO8dNt55ZDe5GzzF50rTYfpujI/vvQg4B1v8otWu3csOjhHvt07cQuhV6zmtjx8cB+w2Ksa/+c4XW8UWTC7CSW5LyFVQrAdZnIi1aRay+duTWXLfh7Xixfq+IrivwQ6NsL6vxr0f9P/8RuQlvREydEDFjetpvFWxsdwmwBFiN7Rnnf6GAAEtjlF0gC7Oyx01atmkV/XbeIgYM2Dp22a13dFu3c9nn+rIBJ4z/IEaNGhMj73o8nh7zamRvqloRjwgu74YFWE0/wLr0sqPj2BP2Wd5SV/1/zzZvH/PEK1Wft1wTHvKjXWPor0+I7AUSKR2Dz70xhgy6qdkGWFm4eN/9F8cO39kspWX5dy233/ZQ/Ojg8wuqTYD1v5m27P2N+P095ze8eTj1Y9jtD8XRR10Ws2fPS6pUAVZSy1HeYmotwFpap2FD21xEuw4RvXaIuo23ifyG34qoa1Few6VHq6+P3Afjo/71ZyPGPhXx7qsR2QbtCb+koWQMAZYAq+QmMkAmIMDSB1UTyB4L+trX142vbtA1evRYK7p2XbPhTWOrrLJSrLxK21ipbeuGNyFlb7nKNsVuUVcXubpPd4nPNltfsqQ+Fi9aHAsWLor58xbGvHkLGv7xOmvW3IZP3N95e0qMGzcpxr76bkyaNDXyVXqTYCmA2R+D63Zfq5Qhynpt9ra6uXPnl3XMxg6WBRbd1qte2Lm8+iaO/6Ch177sWHPNDrFago/NTnj3/Ya93Zry0WP9LpE9opnSMXHCB5Ft6P5lxxprrhYdOq6aTMnjXp9Q9lrar/aV6LxWx7KPW64BG3PPG3593XJNW/I4s2bOifemfFjyOKUM0KPn2tGqdatShqjKtR99ODOmT6vuS1cKvrHOjeipaZMj6pcUPHSSJ67ZLfvUMsnSylpUFq58+F5Zh0x5sHxdXdSt1T1ijW4Rq3dpeJNhftUOkWu9UkTrNhEtW0dk3+JqkYVc2SfX8Wn4lP1nyeJP/7N4YcSiBZFfMD9azP448p9Mi/xH70f99CmRyzZhnzc7ZYLK1NaY3w/Tp3zq2JyOxvhMndR090NrTmtagXsVYFUA1ZCFCdTV1cVKK7dpeMwwCy2yMKd16yzAahEtW7SMFi1yDd/kyo5/B1iLl8TChYsaHgHMQoXs1dpZiLV4cRP/B2BhZM4iQIAAAQIECBAgUHWBfIsWkWvVtmFD+E8DrJYN39Jq+Ld6Lsuu8pHL5yPfEGAt+VeAlYVY82vrUcCqy5uQAIGlBQRY+oEAAQIECBAgQIAAAQIECBAgQCBpAQFW0sujOAIECBAgQIAAAQIECBAgQIAAAQGWHiBAgAABAgQIECBAgAABAgQIEEhaQICV9PIojgABAgQIECBAgAABAgQIECBAQIClBwgQIECAAAECBAgQIECAAAECBJIWEGAlvTyKI0CAAAECBAgQIECAAAECBAgQEGDpAQIECBAgQIAAAQIECBAgQIAAgaQFBFhJL4/iCBAgQIAAAQIECBAgQIAAAQIEBFh6gAABAgQIECBAgAABAgQIECBAIGkBAVbSy6M4AgQIECBAgAABAgQIECBAgAABAZYeIECAAAECBAgQIECAAAECBAgQSFpAgJX08iiOAAECBAgQIECAAAECBAgQIEBAgKUHCBAgQIAAAQIECBAgQIAAAQIEkhYQYCW9PIojQIAAAQIECBAgQIAAAQIECBAQYOkBAgQIECBAgAABAgQIECBAgACBpAUEWEkvj+IIECBAgAABAgQIECBAgAABAgQEWHqAAAECBAgQIECAAAECBAgQIEAgaQEBVtLLozgCBAgQIECAAAECBAgQIECAAAEBlh4gQIAAAQIECBAgQIAAAQIECBBIWkCAlfTyKI4AAQIECBAgQIAAAQIECBAgQECApQcIECBAgAABAgQIECBAgAABAgSSFhBgJb08iiNAgAABAgQIECBAgAABAgQIEBBg6QECBAgQIECAAAECBAgQIECAAIGkBQRYSS+P4ggQIECAAAECBAgQIECAAAECBARYeoAAAQIECBAgQIAAAQIECBAgQCBpAQFW0sujOAIECBAgQIAAAQIECBAgQIAAAQGWHiBAgAABAgQIECBAgAABAgQIEEhaQICV9PIojgABAgQIECBAgAABAgQIECBAQIClBwgQIECAAAECBAgQIECAAAECBJIWEGAlvTyKI0CAAAECBAgQIECAAAECBAgQEGDpAQIECBAgQIAAAQIECBAgQIAAgaQFBFhJL4/iCBAgQIAAAQIECBAgQIAAAQIEBFh6gAABAgQIECBAgAABAgQIECBAIGkBAVbSy6M4AgQIECBAgAABAgQIECBAgAABAZYeIECAAAFYWpDDAAAJsUlEQVQCBAgQIECAAAECBAgQSFpAgJX08iiOAAECBAgQIECAAAECBAgQIEBAgKUHCBAgQIAAAQIECBAgQIAAAQIEkhYQYCW9PIojQIAAAQIECBAgQIAAAQIECBAQYOkBAgQIECBAgAABAgQIECBAgACBpAUEWEkvj+IIECBAgAABAgQIECBAgAABAgQEWHqAAAECBAgQIECAAAECBAgQIEAgaQEBVtLLozgCBAgQIECAAAECBAgQIECAAAEBlh4gQIAAAQIECBAgQIAAAQIECBBIWkCAlfTyKI4AAQIECBAgQIAAAQIECBAgQECApQcIECBAgAABAgQIECBAgAABAgSSFhBgJb08iiNAgAABAgQIECBAgAABAgQIEBBg6QECBAgQIECAAAECBAgQIECAAIGkBQRYSS+P4ggQIECAAAECBAgQIECAAAECBARYeoAAAQIECBAgQIAAAQIECBAgQCBpAQFW0sujOAIECBAgQIAAAQIECBAgQIAAAQGWHiBAgAABAgQIECBAgAABAgQIEEhaQICV9PIojgABAgQIECBAgAABAgQIECBAQIClBwgQIECAAAECBAgQIECAAAECBJIWEGAlvTyKI0CAAAECBAgQIECAAAECBAgQEGDpAQIECBAgQIAAAQIECBAgQIAAgaQFBFhJL4/iCBAgQIAAAQIECBAgQIAAAQIEBFh6gAABAgQIECBAgAABAgQIECBAIGkBAVbSy6M4AgQIECBAgAABAgQIECBAgAABAZYeIECAAAECBAgQIECAAAECBAgQSFpAgJX08iiOAAECBAgQIECAAAECBAgQIEBAgKUHCBAgQIAAAQIECBAgQIAAAQIEkhYQYCW9PIojQIAAAQIECBAgQIAAAQIECBAQYOkBAgQIECBAgAABAgQIECBAgACBpAUEWEkvj+IIECBAgAABAgQIECBAgAABAgQEWHqAAAECBAgQIECAAAECBAgQIEAgaQEBVtLLozgCBAgQIECAAAECBAgQIECAAAEBlh4gQIAAAQIECBAgQIAAAQIECBBIWkCAlfTyKI4AAQIECBAgQIAAAQIECBAgQECApQcIECBAgAABAgQIECBAgAABAgSSFhBgJb08iiNAgAABAgQIECBAgAABAgQIEBBg6QECBAgQIECAAAECBAgQIECAAIGkBQRYSS+P4ggQIECAAAECBAgQIECAAAECBARYeoAAAQIECBAgQIAAAQIECBAgQCBpAQFW0sujOAIECBAgQIAAAQIECBAgQIAAAQGWHiBAgAABAgQIECBAgAABAgQIEEhaQICV9PIojgABAgQIECBAgAABAgQIECBAQIClBwgQIECAAAECBAgQIECAAAECBJIWEGAlvTyKI0CAAAECBAgQIECAAAECBAgQEGDpAQIECBAgQIAAAQIECBAgQIAAgaQFBFhJL4/iCBAgQIAAAQIECBAgQIAAAQIEBFh6gAABAgQIECBAgAABAgQIECBAIGkBAVbSy6M4AgQIECBAgAABAgQIECBAgAABAZYeIECAAAECBAgQIECAAAECBAgQSFpAgJX08iiOAAECBAgQIECAAAECBAgQIEBAgKUHCBAgQIAAAQIECBAgQIAAAQIEkhYQYCW9PIojQIAAAQIECBAgQIAAAQIECBAQYOkBAgQIECBAgAABAgQIECBAgACBpAUEWEkvj+IIECBAgAABAgQIECBAgAABAgQEWHqAAAECBAgQIECAAAECBAgQIEAgaQEBVtLLozgCBAgQIECAAAECBAgQIECAAAEBlh4gQIAAAQIECBAgQIAAAQIECBBIWkCAlfTyKI4AAQIECBAgQIAAAQIECBAgQECApQcIECBAgAABAgQIECBAgAABAgSSFhBgJb08iiNAgAABAgQIECBAgAABAgQIEBBg6QECBAgQIECAAAECBAgQIECAAIGkBQRYSS+P4ggQIECAAAECBAgQIECAAAECBARYeoAAAQIECBAgQIAAAQIECBAgQCBpAQFW0sujOAIECBAgQIAAAQIECBAgQIAAAQGWHiBAgAABAgQIECBAgAABAgQIEEhaQICV9PIojgABAgQIECBAgAABAgQIECBAQIClBwgQIECAAAECBAgQIECAAAECBJIWEGAlvTyKI0CAAAECBAgQIECAAAECBAgQEGDpAQIECBAgQIAAAQIECBAgQIAAgaQFBFhJL4/iCBAgQIAAAQIECBAgQIAAAQIEBFh6gAABAgQIECBAgAABAgQIECBAIGkBAVbSy6M4AgQIECBAgAABAgQIECBAgAABAZYeIECAAAECBAgQIECAAAECBAgQSFpAgJX08iiOAAECBAgQIECAAAECBAgQIEBAgKUHCBAgQIAAAQIECBAgQIAAAQIEkhYQYCW9PIojQIAAAQIECBAgQIAAAQIECBAQYOkBAgQIECBAgAABAgQIECBAgACBpAUEWEkvj+IIECBAgAABAgQIECBAgAABAgQEWHqAAAECBAgQIECAAAECBAgQIEAgaQEBVtLLozgCBAgQIECAAAECBAgQIECAAAEBlh4gQIAAAQIECBAgQIAAAQIECBBIWkCAlfTyKI4AAQIECBAgQIAAAQIECBAgQECApQcIECBAgAABAgQIECBAgAABAgSSFhBgJb08iiNAgAABAgQIECBAgAABAgQIEBBg6QECBAgQIECAAAECBAgQIECAAIGkBQRYSS+P4ggQIECAAAECBAgQIECAAAECBARYeoAAAQIECBAgQIAAAQIECBAgQCBpAQFW0sujOAIECBAgQIAAAQIECBAgQIAAAQGWHiBAgAABAgQIECBAgAABAgQIEEhaQICV9PIojgABAgQIECBAgAABAgQIECBAQIClBwgQIECAAAECBAgQIECAAAECBJIWEGAlvTyKI0CAAAECBAgQIECAAAECBAgQEGDpAQIECBAgQIAAAQIECBAgQIAAgaQFBFhJL4/iCBAgQIAAAQIECBAgQIAAAQIEBFh6gAABAgQIECBAgAABAgQIECBAIGkBAVbSy6M4AgQIECBAgAABAgQIECBAgAABAZYeIECAAAECBAgQIECAAAECBAgQSFpAgJX08iiOAAECBAgQIECAAAECBAgQIEBAgKUHCBAgQIAAAQIECBAgQIAAAQIEkhYQYCW9PIojQIAAAQIECBAgQIAAAQIECBAQYOkBAgQIECBAgAABAgQIECBAgACBpAUEWEkvj+IIECBAgAABAgQIECBAgAABAgQEWHqAAAECBAgQIECAAAECBAgQIEAgaQEBVtLLozgCBAgQIECAAAECBAgQIECAAIH/DxJYR4pQLce6AAAAAElFTkSuQmCC;" vertex="1" parent="1">
          <mxGeometry x="620" y="100" width="120" height="55.9" as="geometry" />
        </mxCell>
        <mxCell id="AK56_XDHbvMIRoJ7_V73-42" value="Selecciona opción de viaje" style="html=1;verticalAlign=bottom;endArrow=block;curved=0;rounded=0;" edge="1" parent="1" source="AK56_XDHbvMIRoJ7_V73-4" target="AK56_XDHbvMIRoJ7_V73-58">
          <mxGeometry width="80" relative="1" as="geometry">
            <mxPoint x="460" y="580" as="sourcePoint" />
            <mxPoint x="730" y="620" as="targetPoint" />
            <Array as="points">
              <mxPoint x="630" y="620" />
            </Array>
          </mxGeometry>
        </mxCell>
        <mxCell id="AK56_XDHbvMIRoJ7_V73-44" value="Devuelve listado de&amp;nbsp;&lt;div&gt;opciones de viaje&lt;/div&gt;" style="html=1;verticalAlign=bottom;endArrow=open;dashed=1;endSize=8;curved=0;rounded=0;" edge="1" parent="1">
          <mxGeometry relative="1" as="geometry">
            <mxPoint x="827" y="580" as="sourcePoint" />
            <mxPoint x="285.0000000000001" y="580" as="targetPoint" />
          </mxGeometry>
        </mxCell>
        <mxCell id="AK56_XDHbvMIRoJ7_V73-51" value="Ref" style="shape=umlFrame;whiteSpace=wrap;html=1;pointerEvents=0;" vertex="1" parent="1">
          <mxGeometry x="201" y="957" width="300" height="93" as="geometry" />
        </mxCell>
        <mxCell id="AK56_XDHbvMIRoJ7_V73-52" value="Continúa en diagrama de secuencia 2" style="text;align=center;fontStyle=1;verticalAlign=middle;spacingLeft=3;spacingRight=3;strokeColor=none;rotatable=0;points=[[0,0.5],[1,0.5]];portConstraint=eastwest;html=1;" vertex="1" parent="1">
          <mxGeometry x="230" y="990" width="240" height="26" as="geometry" />
        </mxCell>
        <mxCell id="AK56_XDHbvMIRoJ7_V73-56" value=":Viaje" style="shape=umlLifeline;perimeter=lifelinePerimeter;whiteSpace=wrap;html=1;container=1;dropTarget=0;collapsible=0;recursiveResize=0;outlineConnect=0;portConstraint=eastwest;newEdgeStyle={&quot;curved&quot;:0,&quot;rounded&quot;:0};" vertex="1" parent="1">
          <mxGeometry x="580" y="210" width="130" height="780" as="geometry" />
        </mxCell>
        <mxCell id="AK56_XDHbvMIRoJ7_V73-58" value="" style="html=1;points=[[0,0,0,0,5],[0,1,0,0,-5],[1,0,0,0,5],[1,1,0,0,-5]];perimeter=orthogonalPerimeter;outlineConnect=0;targetShapes=umlLifeline;portConstraint=eastwest;newEdgeStyle={&quot;curved&quot;:0,&quot;rounded&quot;:0};" vertex="1" parent="AK56_XDHbvMIRoJ7_V73-56">
          <mxGeometry x="59.25" y="270" width="10" height="140" as="geometry" />
        </mxCell>
        <mxCell id="AK56_XDHbvMIRoJ7_V73-86" value="" style="html=1;points=[[0,0,0,0,5],[0,1,0,0,-5],[1,0,0,0,5],[1,1,0,0,-5]];perimeter=orthogonalPerimeter;outlineConnect=0;targetShapes=umlLifeline;portConstraint=eastwest;newEdgeStyle={&quot;curved&quot;:0,&quot;rounded&quot;:0};" vertex="1" parent="AK56_XDHbvMIRoJ7_V73-56">
          <mxGeometry x="245.5" y="639" width="10" height="41" as="geometry" />
        </mxCell>
        <mxCell id="AK56_XDHbvMIRoJ7_V73-89" value="Devuelve listado de&amp;nbsp;&lt;div&gt;opciones de viaje&lt;/div&gt;" style="html=1;verticalAlign=bottom;endArrow=open;dashed=1;endSize=8;curved=0;rounded=0;" edge="1" parent="AK56_XDHbvMIRoJ7_V73-56" target="AK56_XDHbvMIRoJ7_V73-4">
          <mxGeometry relative="1" as="geometry">
            <mxPoint x="244.49511627906986" y="680.71" as="sourcePoint" />
            <mxPoint x="-280" y="681" as="targetPoint" />
          </mxGeometry>
        </mxCell>
        <mxCell id="AK56_XDHbvMIRoJ7_V73-90" value="" style="html=1;points=[[0,0,0,0,5],[0,1,0,0,-5],[1,0,0,0,5],[1,1,0,0,-5]];perimeter=orthogonalPerimeter;outlineConnect=0;targetShapes=umlLifeline;portConstraint=eastwest;newEdgeStyle={&quot;curved&quot;:0,&quot;rounded&quot;:0};" vertex="1" parent="AK56_XDHbvMIRoJ7_V73-56">
          <mxGeometry x="60.25" y="580" width="10" height="140" as="geometry" />
        </mxCell>
        <mxCell id="AK56_XDHbvMIRoJ7_V73-91" value="Notificación de dirección asignada" style="html=1;verticalAlign=bottom;endArrow=open;dashed=1;endSize=8;curved=0;rounded=0;entryX=1.026;entryY=0.786;entryDx=0;entryDy=0;entryPerimeter=0;" edge="1" parent="1" source="AK56_XDHbvMIRoJ7_V73-90" target="AK56_XDHbvMIRoJ7_V73-4">
          <mxGeometry relative="1" as="geometry">
            <mxPoint x="636.4951162790699" y="829" as="sourcePoint" />
            <mxPoint x="294.5" y="829" as="targetPoint" />
          </mxGeometry>
        </mxCell>
        <mxCell id="AK56_XDHbvMIRoJ7_V73-88" value="Selecciona opción de viaje" style="html=1;verticalAlign=bottom;endArrow=block;curved=0;rounded=0;" edge="1" parent="1" target="AK56_XDHbvMIRoJ7_V73-90" source="AK56_XDHbvMIRoJ7_V73-4">
          <mxGeometry width="80" relative="1" as="geometry">
            <mxPoint x="294.5" y="929" as="sourcePoint" />
            <mxPoint x="739.5" y="929" as="targetPoint" />
            <Array as="points">
              <mxPoint x="639.5" y="929" />
            </Array>
          </mxGeometry>
        </mxCell>
        <mxCell id="AK56_XDHbvMIRoJ7_V73-87" value="Asigna dirección destino" style="html=1;verticalAlign=bottom;endArrow=block;curved=0;rounded=0;" edge="1" parent="1" source="AK56_XDHbvMIRoJ7_V73-16" target="AK56_XDHbvMIRoJ7_V73-90">
          <mxGeometry width="80" relative="1" as="geometry">
            <mxPoint x="469.5" y="789" as="sourcePoint" />
            <mxPoint x="644.5" y="789" as="targetPoint" />
          </mxGeometry>
        </mxCell>
      </root>
    </mxGraphModel>
  </diagram>
</mxfile>
